<svg width="179" height="50" viewBox="0 0 179 50" fill="none" xmlns="http://www.w3.org/2000/svg">
<path d="M20.3984 26.3978L27.6963 39.2513L27.6973 39.1761L27.6963 36.1898L28.2598 34.7151L30.4404 30.0345L34.5908 21.7816L34.9424 21.5023V48.637H25.6562L23.4756 45.0648L21.2246 40.5892L16.7285 32.0569L14.4023 36.1888L11.5879 41.5032L9.47754 45.6995L8.07129 48.637H0.0517578V35.6292L7.22656 21.7816L6.80469 37.1673L9.75879 32.2728L16.7285 20.1038L20.3984 26.3978ZM11.5 33.2571L11.4766 33.2972L8.52246 38.1937L4.59375 44.7034L4.80176 37.1185L4.9834 30.4583L2.05664 36.1087V46.64L6.80762 46.6409L7.66895 44.8441L7.67773 44.8265L7.68652 44.8099L9.7959 40.6146L9.80664 40.595L9.81543 40.5765L12.6289 35.262L12.6416 35.2386L12.6543 35.2161L14.9805 31.0853L16.7881 27.8734L18.5029 31.1273L23 39.6585L23.0098 39.6761L23.0176 39.6927L25.2295 44.0892L26.7861 46.64H29.5869L25.9512 40.2376L18.6641 27.4036L16.7412 24.1038L11.5 33.2571ZM32.2578 30.8714L30.1055 35.4886L29.7012 36.5491V39.2474L29.7002 46.6409H32.9375V29.5198L32.2578 30.8714ZM26.6992 34.9124L22.9004 27.8079L27.8242 18.1956H35L26.6992 34.9124ZM7.31543 19.015L0.00292969 33.3919L0 0.713196L7.18555 0.662415L7.31543 19.015ZM25.1602 27.7835L26.6357 30.5433L31.7754 20.1907H29.0498L25.1602 27.7835ZM34.666 8.05109L22.5674 8.05011L19.332 13.3655L11.1719 27.4925L7.7959 20.765L19.6133 0.638H34.667L34.666 8.05109ZM2.00098 2.69855V25.0491L5.31152 18.5433L5.19922 2.67609L2.00098 2.69855ZM20.7607 2.63312L10.0732 20.8343L11.2979 23.2737L17.5947 12.3743L17.6182 12.3353L20.8535 7.01886L21.4414 6.05499H22.5732L32.6621 6.05402L32.6611 2.63214L20.7607 2.63312Z" fill="#3DCEB4"/>
<mask id="path-2-outside-1_12_19" maskUnits="userSpaceOnUse" x="41" y="-0.362" width="134" height="50" fill="black">
<rect fill="white" x="41" y="-0.362" width="134" height="50"/>
<path d="M43.33 2.221H47.686L52.867 20.206H51.877L56.992 3.64H59.632L64.945 19.942H64.054L69.499 2.221H73.888L66.529 23.638H62.437L58.246 10.999H58.609L54.418 23.638H50.326L43.33 2.221ZM81.8822 23.638L81.3872 19.744V13.309C81.3872 12.187 81.1562 11.3565 80.6942 10.8175C80.2432 10.2785 79.4732 10.009 78.3842 10.009C77.7572 10.009 77.2127 10.1025 76.7507 10.2895C76.2887 10.4765 75.9312 10.746 75.6782 11.098C75.4362 11.439 75.3152 11.857 75.3152 12.352H71.0582C71.0582 11.142 71.3497 10.1575 71.9327 9.3985C72.5157 8.6285 73.3517 8.0675 74.4407 7.7155C75.5407 7.3525 76.8552 7.171 78.3842 7.171C79.7702 7.171 80.9802 7.3965 82.0142 7.8475C83.0482 8.2875 83.8512 8.9695 84.4233 9.8935C84.9952 10.8175 85.2812 12 85.2812 13.441V23.638H81.8822ZM76.6352 24.1C75.2602 24.1 74.1107 23.8635 73.1867 23.3905C72.2737 22.9065 71.5862 22.274 71.1242 21.493C70.6622 20.712 70.4312 19.865 70.4312 18.952C70.4312 17.94 70.6952 17.093 71.2232 16.411C71.7622 15.718 72.5212 15.201 73.5002 14.86C74.4792 14.508 75.6342 14.332 76.9652 14.332C77.8342 14.332 78.6537 14.398 79.4237 14.53C80.2047 14.662 80.9802 14.838 81.7503 15.058V17.335C81.1453 17.137 80.4853 16.983 79.7703 16.873C79.0552 16.763 78.3842 16.708 77.7572 16.708C76.8332 16.708 76.0742 16.8785 75.4802 17.2195C74.8862 17.5605 74.5892 18.138 74.5892 18.952C74.5892 19.546 74.8312 20.0575 75.3152 20.4865C75.7992 20.9155 76.5692 21.13 77.6252 21.13C78.4282 21.13 79.1102 20.954 79.6712 20.602C80.2322 20.25 80.6557 19.81 80.9417 19.282C81.2387 18.754 81.3872 18.226 81.3872 17.698H82.3112C82.3112 18.853 82.0967 19.92 81.6677 20.899C81.2387 21.867 80.6007 22.6425 79.7537 23.2255C78.9177 23.8085 77.8782 24.1 76.6352 24.1ZM86.699 23.638V0.999999H90.593V23.638H86.699ZM98.3706 24.1C97.0286 24.1 95.8021 23.748 94.6911 23.044C93.5911 22.329 92.7111 21.3335 92.0511 20.0575C91.4021 18.7705 91.0776 17.269 91.0776 15.553C91.0776 13.859 91.3911 12.385 92.0181 11.131C92.6561 9.866 93.5031 8.8925 94.5591 8.2105C95.6261 7.5175 96.8086 7.171 98.1066 7.171C99.2946 7.171 100.323 7.457 101.192 8.029C102.061 8.59 102.727 9.426 103.189 10.537C103.651 11.648 103.882 13.012 103.882 14.629H102.661C102.661 13.793 102.49 13.0835 102.149 12.5005C101.808 11.9065 101.357 11.4555 100.796 11.1475C100.246 10.8285 99.6466 10.669 98.9976 10.669C98.2167 10.669 97.5237 10.8725 96.9187 11.2795C96.3246 11.6865 95.8571 12.2585 95.5161 12.9955C95.1751 13.7215 95.0046 14.574 95.0046 15.553C95.0046 16.565 95.1751 17.445 95.5161 18.193C95.8571 18.941 96.3246 19.524 96.9187 19.942C97.5237 20.36 98.2057 20.569 98.9647 20.569C99.5807 20.569 100.169 20.404 100.73 20.074C101.302 19.733 101.764 19.26 102.116 18.655C102.479 18.05 102.661 17.346 102.661 16.543H103.882C103.882 18.226 103.629 19.6285 103.123 20.7505C102.628 21.8615 101.962 22.6975 101.126 23.2585C100.29 23.8195 99.3717 24.1 98.3706 24.1ZM103.387 23.638L102.661 19.678V0.999999H106.588V23.638H103.387ZM114.417 24.1C113.053 24.1 111.805 23.748 110.672 23.044C109.539 22.34 108.631 21.3555 107.949 20.0905C107.267 18.8145 106.926 17.324 106.926 15.619C106.926 13.859 107.262 12.3465 107.933 11.0815C108.615 9.8165 109.522 8.8485 110.655 8.1775C111.788 7.5065 113.042 7.171 114.417 7.171C115.693 7.171 116.793 7.4295 117.717 7.9465C118.652 8.4525 119.4 9.1455 119.961 10.0255C120.533 10.8945 120.918 11.879 121.116 12.979C121.314 14.079 121.325 15.212 121.149 16.378H110.028V14.266H118.394L117.635 14.761C117.668 14.244 117.64 13.7215 117.552 13.1935C117.475 12.6655 117.321 12.1815 117.09 11.7415C116.859 11.3015 116.529 10.9495 116.1 10.6855C115.682 10.4105 115.143 10.273 114.483 10.273C113.691 10.273 113.02 10.471 112.47 10.867C111.92 11.263 111.502 11.802 111.216 12.484C110.93 13.166 110.787 13.936 110.787 14.794V16.345C110.787 17.247 110.919 18.0445 111.183 18.7375C111.458 19.4305 111.86 19.975 112.388 20.371C112.927 20.767 113.603 20.965 114.417 20.965C115.176 20.965 115.814 20.789 116.331 20.437C116.848 20.085 117.178 19.557 117.321 18.853H121.248C121.083 19.887 120.693 20.8 120.077 21.592C119.472 22.373 118.685 22.989 117.717 23.44C116.749 23.88 115.649 24.1 114.417 24.1ZM143.4 23.638V14.266C143.4 13.078 143.114 12.1815 142.542 11.5765C141.97 10.9715 141.222 10.669 140.298 10.669C139.132 10.669 138.214 11.142 137.543 12.088C136.872 13.034 136.536 14.464 136.536 16.378H134.919C134.919 14.695 135.073 13.2705 135.381 12.1045C135.7 10.9275 136.146 9.9815 136.718 9.2665C137.301 8.5405 137.983 8.0125 138.764 7.6825C139.545 7.3415 140.408 7.171 141.354 7.171C142.663 7.171 143.758 7.468 144.638 8.062C145.529 8.645 146.2 9.47 146.651 10.537C147.102 11.604 147.327 12.847 147.327 14.266V23.638H143.4ZM121.653 23.638V7.633H125.052L125.481 10.372C126.009 9.305 126.708 8.5075 127.577 7.9795C128.446 7.4405 129.441 7.171 130.563 7.171C131.883 7.171 132.983 7.468 133.863 8.062C134.754 8.645 135.42 9.47 135.86 10.537C136.311 11.604 136.536 12.847 136.536 14.266V23.638H132.642V14.266C132.642 13.078 132.356 12.1815 131.784 11.5765C131.212 10.9715 130.464 10.669 129.54 10.669C128.759 10.669 128.066 10.8835 127.461 11.3125C126.867 11.7415 126.4 12.3905 126.059 13.2595C125.718 14.1175 125.547 15.19 125.547 16.477V23.638H121.653ZM158.884 23.638L158.389 19.744V13.309C158.389 12.187 158.158 11.3565 157.696 10.8175C157.245 10.2785 156.475 10.009 155.386 10.009C154.759 10.009 154.215 10.1025 153.753 10.2895C153.291 10.4765 152.933 10.746 152.68 11.098C152.438 11.439 152.317 11.857 152.317 12.352H148.06C148.06 11.142 148.352 10.1575 148.935 9.3985C149.518 8.6285 150.354 8.0675 151.443 7.7155C152.543 7.3525 153.857 7.171 155.386 7.171C156.772 7.171 157.982 7.3965 159.016 7.8475C160.05 8.2875 160.853 8.9695 161.425 9.8935C161.997 10.8175 162.283 12 162.283 13.441V23.638H158.884ZM153.637 24.1C152.262 24.1 151.113 23.8635 150.189 23.3905C149.276 22.9065 148.588 22.274 148.126 21.493C147.664 20.712 147.433 19.865 147.433 18.952C147.433 17.94 147.697 17.093 148.225 16.411C148.764 15.718 149.523 15.201 150.502 14.86C151.481 14.508 152.636 14.332 153.967 14.332C154.836 14.332 155.656 14.398 156.426 14.53C157.207 14.662 157.982 14.838 158.752 15.058V17.335C158.147 17.137 157.487 16.983 156.772 16.873C156.057 16.763 155.386 16.708 154.759 16.708C153.835 16.708 153.076 16.8785 152.482 17.2195C151.888 17.5605 151.591 18.138 151.591 18.952C151.591 19.546 151.833 20.0575 152.317 20.4865C152.801 20.9155 153.571 21.13 154.627 21.13C155.43 21.13 156.112 20.954 156.673 20.602C157.234 20.25 157.658 19.81 157.944 19.282C158.241 18.754 158.389 18.226 158.389 17.698H159.313C159.313 18.853 159.099 19.92 158.67 20.899C158.241 21.867 157.603 22.6425 156.756 23.2255C155.92 23.8085 154.88 24.1 153.637 24.1ZM163.701 23.638V7.567H167.595V23.638H163.701ZM166.638 16.609C166.638 14.508 166.875 12.77 167.348 11.395C167.821 10.02 168.453 9.0025 169.245 8.3425C170.048 7.6715 170.939 7.336 171.918 7.336C172.182 7.336 172.43 7.3525 172.661 7.3855C172.903 7.4185 173.139 7.468 173.37 7.534L173.304 11.428C173.018 11.362 172.71 11.307 172.38 11.263C172.05 11.219 171.753 11.197 171.489 11.197C170.631 11.197 169.911 11.406 169.328 11.824C168.756 12.231 168.321 12.836 168.024 13.639C167.738 14.442 167.595 15.432 167.595 16.609H166.638ZM53.89 48.1C52.141 48.1 50.5625 47.638 49.1545 46.714C47.7465 45.79 46.6245 44.503 45.7885 42.853C44.9635 41.192 44.551 39.256 44.551 37.045C44.551 35.296 44.804 33.7285 45.31 32.3425C45.827 30.9565 46.542 29.774 47.455 28.795C48.368 27.816 49.4405 27.0735 50.6725 26.5675C51.9045 26.0505 53.241 25.792 54.682 25.792C56.684 25.792 58.3615 26.2265 59.7145 27.0955C61.0785 27.9645 62.14 29.334 62.899 31.204L58.906 32.128C58.345 31.215 57.696 30.522 56.959 30.049C56.233 29.565 55.408 29.323 54.484 29.323C53.428 29.323 52.4655 29.6365 51.5965 30.2635C50.7275 30.8795 50.0345 31.765 49.5175 32.92C49.0005 34.075 48.742 35.45 48.742 37.045C48.742 38.541 48.9675 39.85 49.4185 40.972C49.8805 42.094 50.524 42.9685 51.349 43.5955C52.174 44.2225 53.131 44.536 54.22 44.536C55.144 44.536 55.969 44.3325 56.695 43.9255C57.432 43.5075 58.0095 42.9135 58.4275 42.1435C58.8565 41.3735 59.071 40.444 59.071 39.355H59.929C59.929 41.137 59.7145 42.6825 59.2855 43.9915C58.8675 45.3005 58.213 46.3125 57.322 47.0275C56.431 47.7425 55.287 48.1 53.89 48.1ZM59.632 47.638L59.071 42.919V39.223L54.253 39.124V36.649H62.8V47.638H59.632ZM66.389 28.696C65.63 28.696 65.036 28.498 64.607 28.102C64.189 27.695 63.98 27.134 63.98 26.419C63.98 25.726 64.189 25.176 64.607 24.769C65.036 24.351 65.63 24.142 66.389 24.142C67.137 24.142 67.7255 24.351 68.1545 24.769C68.5835 25.176 68.798 25.726 68.798 26.419C68.798 27.134 68.5835 27.695 68.1545 28.102C67.7255 28.498 67.137 28.696 66.389 28.696ZM64.442 47.638V31.567H68.336V47.638H64.442ZM76.6231 48.1C75.2591 48.1 74.0106 47.748 72.8776 47.044C71.7446 46.34 70.8371 45.3555 70.1551 44.0905C69.4731 42.8145 69.1321 41.324 69.1321 39.619C69.1321 37.859 69.4676 36.3465 70.1386 35.0815C70.8206 33.8165 71.7281 32.8485 72.8611 32.1775C73.9941 31.5065 75.2481 31.171 76.6231 31.171C77.8991 31.171 78.9991 31.4295 79.9231 31.9465C80.8581 32.4525 81.6061 33.1455 82.1671 34.0255C82.7391 34.8945 83.1241 35.879 83.3221 36.979C83.5201 38.079 83.5311 39.212 83.3551 40.378H72.2341V38.266H80.5996L79.8406 38.761C79.8736 38.244 79.8461 37.7215 79.7581 37.1935C79.6811 36.6655 79.5271 36.1815 79.2961 35.7415C79.0651 35.3015 78.7351 34.9495 78.3061 34.6855C77.8881 34.4105 77.3491 34.273 76.6891 34.273C75.8971 34.273 75.2261 34.471 74.6761 34.867C74.1261 35.263 73.7081 35.802 73.4221 36.484C73.1361 37.166 72.9931 37.936 72.9931 38.794V40.345C72.9931 41.247 73.1251 42.0445 73.3891 42.7375C73.6641 43.4305 74.0656 43.975 74.5936 44.371C75.1326 44.767 75.8091 44.965 76.6231 44.965C77.3821 44.965 78.0201 44.789 78.5371 44.437C79.0541 44.085 79.3841 43.557 79.5271 42.853H83.4541C83.2891 43.887 82.8986 44.8 82.2826 45.592C81.6776 46.373 80.8911 46.989 79.9231 47.44C78.9551 47.88 77.8551 48.1 76.6231 48.1ZM89.8322 48.1C88.2922 48.1 86.9667 47.891 85.8557 47.473C84.7557 47.044 83.9087 46.4335 83.3147 45.6415C82.7207 44.8385 82.4182 43.876 82.4072 42.754H86.0042C86.0372 43.546 86.3507 44.1235 86.9447 44.4865C87.5387 44.8495 88.3472 45.031 89.3702 45.031C89.9312 45.031 90.4262 44.9485 90.8552 44.7835C91.2952 44.6185 91.6362 44.393 91.8782 44.107C92.1202 43.821 92.2412 43.502 92.2412 43.15C92.2412 42.699 92.0762 42.347 91.7462 42.094C91.4272 41.83 90.9102 41.588 90.1952 41.368L86.6972 40.114C85.4432 39.663 84.4807 39.069 83.8097 38.332C83.1387 37.595 82.8032 36.715 82.8032 35.692C82.8032 34.339 83.4137 33.25 84.6347 32.425C85.8667 31.589 87.5112 31.171 89.5682 31.171C91.6142 31.171 93.1927 31.622 94.3037 32.524C95.4257 33.415 96.0032 34.548 96.0362 35.923H92.3732C92.3182 35.395 92.0652 34.977 91.6142 34.669C91.1632 34.361 90.4812 34.207 89.5682 34.207C88.7432 34.207 88.0942 34.3775 87.6212 34.7185C87.1592 35.0485 86.9282 35.439 86.9282 35.89C86.9282 36.649 87.5772 37.221 88.8752 37.606L92.6702 39.025C93.9022 39.443 94.8592 39.982 95.5412 40.642C96.2232 41.302 96.5642 42.138 96.5642 43.15C96.5642 43.997 96.2782 44.8 95.7062 45.559C95.1452 46.307 94.3587 46.9175 93.3467 47.3905C92.3347 47.8635 91.1632 48.1 89.8322 48.1ZM105.156 48.1C104.155 48.1 103.236 47.8195 102.4 47.2585C101.575 46.6975 100.915 45.8615 100.42 44.7505C99.925 43.6285 99.6775 42.226 99.6775 40.543H100.866C100.866 41.346 101.047 42.05 101.41 42.655C101.773 43.26 102.241 43.733 102.813 44.074C103.385 44.404 103.979 44.569 104.595 44.569C105.354 44.569 106.03 44.36 106.624 43.942C107.218 43.524 107.686 42.941 108.027 42.193C108.379 41.445 108.555 40.565 108.555 39.553C108.555 38.574 108.384 37.7215 108.043 36.9955C107.702 36.2585 107.229 35.6865 106.624 35.2795C106.03 34.8725 105.343 34.669 104.562 34.669C103.913 34.669 103.308 34.8285 102.747 35.1475C102.186 35.4555 101.729 35.9065 101.377 36.5005C101.036 37.0835 100.866 37.793 100.866 38.629H99.6775C99.6775 37.012 99.9085 35.648 100.371 34.537C100.844 33.426 101.509 32.59 102.367 32.029C103.236 31.457 104.265 31.171 105.453 31.171C106.751 31.171 107.928 31.5175 108.984 32.2105C110.051 32.8925 110.898 33.866 111.525 35.131C112.163 36.385 112.482 37.859 112.482 39.553C112.482 41.269 112.152 42.7705 111.492 44.0575C110.843 45.3335 109.963 46.329 108.852 47.044C107.741 47.748 106.509 48.1 105.156 48.1ZM96.9715 47.638V25H100.866V43.678L99.5125 47.638H96.9715ZM112.952 47.638V31.567H116.846V47.638H112.952ZM115.889 40.609C115.889 38.508 116.126 36.77 116.599 35.395C117.072 34.02 117.704 33.0025 118.496 32.3425C119.299 31.6715 120.19 31.336 121.169 31.336C121.433 31.336 121.681 31.3525 121.912 31.3855C122.154 31.4185 122.39 31.468 122.621 31.534L122.555 35.428C122.269 35.362 121.961 35.307 121.631 35.263C121.301 35.219 121.004 35.197 120.74 35.197C119.882 35.197 119.162 35.406 118.579 35.824C118.007 36.231 117.572 36.836 117.275 37.639C116.989 38.442 116.846 39.432 116.846 40.609H115.889ZM127.59 48.1C126.226 48.1 124.978 47.748 123.845 47.044C122.712 46.34 121.804 45.3555 121.122 44.0905C120.44 42.8145 120.099 41.324 120.099 39.619C120.099 37.859 120.435 36.3465 121.106 35.0815C121.788 33.8165 122.695 32.8485 123.828 32.1775C124.961 31.5065 126.215 31.171 127.59 31.171C128.866 31.171 129.966 31.4295 130.89 31.9465C131.825 32.4525 132.573 33.1455 133.134 34.0255C133.706 34.8945 134.091 35.879 134.289 36.979C134.487 38.079 134.498 39.212 134.322 40.378H123.201V38.266H131.567L130.808 38.761C130.841 38.244 130.813 37.7215 130.725 37.1935C130.648 36.6655 130.494 36.1815 130.263 35.7415C130.032 35.3015 129.702 34.9495 129.273 34.6855C128.855 34.4105 128.316 34.273 127.656 34.273C126.864 34.273 126.193 34.471 125.643 34.867C125.093 35.263 124.675 35.802 124.389 36.484C124.103 37.166 123.96 37.936 123.96 38.794V40.345C123.96 41.247 124.092 42.0445 124.356 42.7375C124.631 43.4305 125.033 43.975 125.561 44.371C126.1 44.767 126.776 44.965 127.59 44.965C128.349 44.965 128.987 44.789 129.504 44.437C130.021 44.085 130.351 43.557 130.494 42.853H134.421C134.256 43.887 133.866 44.8 133.25 45.592C132.645 46.373 131.858 46.989 130.89 47.44C129.922 47.88 128.822 48.1 127.59 48.1ZM140.898 48.1C139.556 48.1 138.308 47.7535 137.153 47.0605C136.009 46.3565 135.079 45.372 134.364 44.107C133.66 42.831 133.308 41.335 133.308 39.619C133.308 37.804 133.66 36.2695 134.364 35.0155C135.079 33.7505 136.009 32.7935 137.153 32.1445C138.308 31.4955 139.556 31.171 140.898 31.171C141.943 31.171 142.862 31.3415 143.654 31.6825C144.457 32.0125 145.139 32.4635 145.7 33.0355C146.261 33.5965 146.701 34.2235 147.02 34.9165C147.339 35.6095 147.542 36.308 147.63 37.012L143.703 37.111C143.527 36.407 143.197 35.824 142.713 35.362C142.24 34.9 141.624 34.669 140.865 34.669C140.238 34.669 139.65 34.845 139.1 35.197C138.55 35.538 138.099 36.0715 137.747 36.7975C137.406 37.5235 137.235 38.464 137.235 39.619C137.235 40.719 137.395 41.6375 137.714 42.3745C138.044 43.1005 138.484 43.6505 139.034 44.0245C139.584 44.3875 140.194 44.569 140.865 44.569C141.855 44.569 142.576 44.3325 143.027 43.8595C143.478 43.3755 143.703 42.732 143.703 41.929H147.63C147.63 43.062 147.372 44.096 146.855 45.031C146.338 45.966 145.579 46.714 144.578 47.275C143.577 47.825 142.35 48.1 140.898 48.1ZM158.992 47.638V38.266C158.992 37.078 158.706 36.1815 158.134 35.5765C157.562 34.9715 156.814 34.669 155.89 34.669C155.109 34.669 154.416 34.8835 153.811 35.3125C153.217 35.7415 152.749 36.3905 152.408 37.2595C152.067 38.1175 151.897 39.19 151.897 40.477H150.61C150.61 38.398 150.868 36.671 151.385 35.296C151.902 33.91 152.634 32.876 153.58 32.194C154.526 31.512 155.637 31.171 156.913 31.171C158.233 31.171 159.333 31.468 160.213 32.062C161.104 32.645 161.769 33.47 162.209 34.537C162.66 35.604 162.886 36.847 162.886 38.266V47.638H158.992ZM148.003 47.638V25H151.897V47.638H148.003ZM169.685 48.1C168.739 48.1 167.87 47.924 167.078 47.572C166.297 47.22 165.67 46.681 165.197 45.955C164.735 45.229 164.504 44.305 164.504 43.183V27.376H168.398V43.051C168.398 44.371 169.025 45.031 170.279 45.031C170.664 45.031 171.049 44.987 171.434 44.899C171.819 44.811 172.259 44.679 172.754 44.503L173.315 47.242C172.699 47.484 172.1 47.6875 171.517 47.8525C170.934 48.0175 170.323 48.1 169.685 48.1ZM162.26 34.207V31.633H172.754V34.207H162.26Z"/>
</mask>
<path d="M43.33 2.221V1.221H41.9513L42.3794 2.53151L43.33 2.221ZM47.686 2.221L48.6469 1.94418L48.4386 1.221H47.686V2.221ZM52.867 20.206V21.206H54.1957L53.8279 19.9292L52.867 20.206ZM51.877 20.206L50.9215 19.911L50.5217 21.206H51.877V20.206ZM56.992 3.64V2.64H56.2542L56.0365 3.34498L56.992 3.64ZM59.632 3.64L60.5828 3.33013L60.3579 2.64H59.632V3.64ZM64.945 19.942V20.942H66.3227L65.8958 19.6321L64.945 19.942ZM64.054 19.942L63.0981 19.6483L62.7006 20.942H64.054V19.942ZM69.499 2.221V1.221H68.7601L68.5431 1.92729L69.499 2.221ZM73.888 2.221L74.8337 2.54596L75.289 1.221H73.888V2.221ZM66.529 23.638V24.638H67.2428L67.4747 23.963L66.529 23.638ZM62.437 23.638L61.4878 23.9527L61.7151 24.638H62.437V23.638ZM58.246 10.999V9.999H56.8609L57.2968 11.3137L58.246 10.999ZM58.609 10.999L59.5582 11.3137L59.9941 9.999H58.609V10.999ZM54.418 23.638V24.638H55.14L55.3672 23.9527L54.418 23.638ZM50.326 23.638L49.3754 23.9485L49.6007 24.638H50.326V23.638ZM43.33 2.221V3.221H47.686V2.221V1.221H43.33V2.221ZM47.686 2.221L46.7251 2.49782L51.9061 20.4828L52.867 20.206L53.8279 19.9292L48.6469 1.94418L47.686 2.221ZM52.867 20.206V19.206H51.877V20.206V21.206H52.867V20.206ZM51.877 20.206L52.8325 20.501L57.9475 3.93502L56.992 3.64L56.0365 3.34498L50.9215 19.911L51.877 20.206ZM56.992 3.64V4.64H59.632V3.64V2.64H56.992V3.64ZM59.632 3.64L58.6812 3.94987L63.9942 20.2519L64.945 19.942L65.8958 19.6321L60.5828 3.33013L59.632 3.64ZM64.945 19.942V18.942H64.054V19.942V20.942H64.945V19.942ZM64.054 19.942L65.0099 20.2357L70.4549 2.51471L69.499 2.221L68.5431 1.92729L63.0981 19.6483L64.054 19.942ZM69.499 2.221V3.221H73.888V2.221V1.221H69.499V2.221ZM73.888 2.221L72.9423 1.89604L65.5833 23.313L66.529 23.638L67.4747 23.963L74.8337 2.54596L73.888 2.221ZM66.529 23.638V22.638H62.437V23.638V24.638H66.529V23.638ZM62.437 23.638L63.3862 23.3233L59.1952 10.6843L58.246 10.999L57.2968 11.3137L61.4878 23.9527L62.437 23.638ZM58.246 10.999V11.999H58.609V10.999V9.999H58.246V10.999ZM58.609 10.999L57.6598 10.6843L53.4688 23.3233L54.418 23.638L55.3672 23.9527L59.5582 11.3137L58.609 10.999ZM54.418 23.638V22.638H50.326V23.638V24.638H54.418V23.638ZM50.326 23.638L51.2766 23.3275L44.2806 1.91049L43.33 2.221L42.3794 2.53151L49.3754 23.9485L50.326 23.638ZM81.8822 23.638L80.8902 23.7641L81.0013 24.638H81.8822V23.638ZM81.3872 19.744H80.3872V19.8073L80.3952 19.8701L81.3872 19.744ZM80.6943 10.8175L79.9273 11.4593L79.935 11.4683L80.6943 10.8175ZM76.7507 10.2895L77.1259 11.2164V11.2164L76.7507 10.2895ZM75.6782 11.098L74.8662 10.5144L74.8627 10.5193L75.6782 11.098ZM75.3153 12.352V13.352H76.3153V12.352H75.3153ZM71.0582 12.352H70.0582V13.352H71.0582V12.352ZM71.9327 9.3985L72.7258 10.0077L72.73 10.0021L71.9327 9.3985ZM74.4408 7.7155L74.7483 8.66704L74.7541 8.66513L74.4408 7.7155ZM82.0143 7.8475L81.6144 8.76414L81.6227 8.76766L82.0143 7.8475ZM84.4232 9.8935L85.2735 9.36715V9.36714L84.4232 9.8935ZM85.2812 23.638V24.638H86.2812V23.638H85.2812ZM73.1867 23.3905L72.7184 24.274L72.7247 24.2774L72.7311 24.2806L73.1867 23.3905ZM71.1242 21.493L71.9849 20.9839V20.9839L71.1242 21.493ZM71.2232 16.411L70.4339 15.7971L70.4325 15.7988L71.2232 16.411ZM73.5002 14.86L73.8292 15.8044L73.8386 15.801L73.5002 14.86ZM79.4238 14.53L79.2548 15.5156L79.2571 15.516L79.4238 14.53ZM81.7503 15.058H82.7503V14.3037L82.025 14.0965L81.7503 15.058ZM81.7503 17.335L81.4392 18.2854L82.7503 18.7145V17.335H81.7503ZM79.7702 16.873L79.9223 15.8846H79.9223L79.7702 16.873ZM75.4802 17.2195L74.9824 16.3522V16.3522L75.4802 17.2195ZM75.3153 20.4865L75.9786 19.7382V19.7382L75.3153 20.4865ZM79.6712 20.602L79.1398 19.7549V19.7549L79.6712 20.602ZM80.9417 19.282L80.0702 18.7917L80.0663 18.7987L80.0625 18.8057L80.9417 19.282ZM81.3872 17.698V16.698H80.3872V17.698H81.3872ZM82.3112 17.698H83.3112V16.698H82.3112V17.698ZM81.6677 20.899L82.582 21.3042L82.5837 21.3004L81.6677 20.899ZM79.7537 23.2255L79.1868 22.4018L79.1817 22.4053L79.7537 23.2255ZM81.8822 23.638L82.8743 23.5119L82.3793 19.6179L81.3872 19.744L80.3952 19.8701L80.8902 23.7641L81.8822 23.638ZM81.3872 19.744H82.3872V13.309H81.3872H80.3872V19.744H81.3872ZM81.3872 13.309H82.3872C82.3872 12.0794 82.139 10.9664 81.4535 10.1667L80.6943 10.8175L79.935 11.4683C80.1735 11.7466 80.3872 12.2946 80.3872 13.309H81.3872ZM80.6943 10.8175L81.4612 10.1758C80.7357 9.30879 79.606 9.009 78.3842 9.009V10.009V11.009C79.3405 11.009 79.7508 11.2482 79.9273 11.4592L80.6943 10.8175ZM78.3842 10.009V9.009C77.6606 9.009 76.9832 9.11662 76.3756 9.36255L76.7507 10.2895L77.1259 11.2164C77.4423 11.0884 77.8539 11.009 78.3842 11.009V10.009ZM76.7507 10.2895L76.3756 9.36255C75.7653 9.60958 75.2452 9.98705 74.8662 10.5144L75.6782 11.098L76.4903 11.6816C76.6173 11.5049 76.8122 11.3434 77.1259 11.2164L76.7507 10.2895ZM75.6782 11.098L74.8627 10.5193C74.4799 11.0587 74.3153 11.6887 74.3153 12.352H75.3153H76.3153C76.3153 12.0253 76.3926 11.8193 76.4938 11.6767L75.6782 11.098ZM75.3153 12.352V11.352H71.0582V12.352V13.352H75.3153V12.352ZM71.0582 12.352H72.0582C72.0582 11.3033 72.309 10.5503 72.7258 10.0077L71.9327 9.3985L71.1397 8.78934C70.3905 9.76472 70.0582 10.9807 70.0582 12.352H71.0582ZM71.9327 9.3985L72.73 10.0021C73.1677 9.42399 73.8174 8.96793 74.7483 8.66703L74.4408 7.7155L74.1332 6.76397C72.8861 7.16707 71.8637 7.83301 71.1355 8.79486L71.9327 9.3985ZM74.4408 7.7155L74.7541 8.66513C75.7266 8.34423 76.9297 8.171 78.3842 8.171V7.171V6.171C76.7808 6.171 75.3549 6.36077 74.1274 6.76587L74.4408 7.7155ZM78.3842 7.171V8.171C79.6633 8.171 80.7319 8.37916 81.6145 8.7641L82.0143 7.8475L82.414 6.9309C81.2286 6.41384 79.8772 6.171 78.3842 6.171V7.171ZM82.0143 7.8475L81.6227 8.76766C82.4737 9.12979 83.1135 9.67756 83.573 10.4199L84.4232 9.8935L85.2735 9.36714C84.589 8.26143 83.6228 7.44521 82.4058 6.92735L82.0143 7.8475ZM84.4232 9.8935L83.573 10.4199C84.0201 11.1421 84.2812 12.1269 84.2812 13.441H85.2812H86.2812C86.2812 11.8731 85.9704 10.4929 85.2735 9.36715L84.4232 9.8935ZM85.2812 13.441H84.2812V23.638H85.2812H86.2812V13.441H85.2812ZM85.2812 23.638V22.638H81.8822V23.638V24.638H85.2812V23.638ZM76.6353 24.1V23.1C75.3693 23.1 74.3872 22.8816 73.6424 22.5004L73.1867 23.3905L72.7311 24.2806C73.8343 24.8454 75.1512 25.1 76.6353 25.1V24.1ZM73.1867 23.3905L73.6551 22.507C72.8818 22.097 72.3407 21.5852 71.9849 20.9839L71.1242 21.493L70.2636 22.0021C70.8318 22.9628 71.6657 23.716 72.7184 24.274L73.1867 23.3905ZM71.1242 21.493L71.9849 20.9839C71.6147 20.358 71.4312 19.687 71.4312 18.952H70.4312H69.4312C69.4312 20.043 69.7098 21.066 70.2636 22.0021L71.1242 21.493ZM70.4312 18.952H71.4312C71.4312 18.1217 71.6442 17.5008 72.014 17.0232L71.2232 16.411L70.4325 15.7988C69.7463 16.6852 69.4312 17.7583 69.4312 18.952H70.4312ZM71.2232 16.411L72.0126 17.0249C72.4132 16.5099 72.9988 16.0936 73.8292 15.8044L73.5002 14.86L73.1713 13.9156C72.0437 14.3084 71.1113 14.9261 70.4339 15.7971L71.2232 16.411ZM73.5002 14.86L73.8386 15.801C74.6835 15.4972 75.7189 15.332 76.9652 15.332V14.332V13.332C75.5496 13.332 74.275 13.5188 73.1619 13.919L73.5002 14.86ZM76.9652 14.332V15.332C77.7838 15.332 78.5464 15.3942 79.2548 15.5156L79.4238 14.53L79.5927 13.5444C78.7611 13.4018 77.8847 13.332 76.9652 13.332V14.332ZM79.4238 14.53L79.2571 15.516C80.0013 15.6418 80.7407 15.8096 81.4755 16.0195L81.7503 15.058L82.025 14.0965C81.2198 13.8664 80.4082 13.6822 79.5904 13.544L79.4238 14.53ZM81.7503 15.058H80.7503V17.335H81.7503H82.7503V15.058H81.7503ZM81.7503 17.335L82.0613 16.3846C81.398 16.1675 80.6841 16.0018 79.9223 15.8846L79.7702 16.873L79.6182 17.8614C80.2864 17.9642 80.8925 18.1065 81.4392 18.2854L81.7503 17.335ZM79.7702 16.873L79.9223 15.8846C79.1645 15.768 78.4422 15.708 77.7572 15.708V16.708V17.708C78.3263 17.708 78.946 17.758 79.6182 17.8614L79.7702 16.873ZM77.7572 16.708V15.708C76.7172 15.708 75.7718 15.8991 74.9824 16.3522L75.4802 17.2195L75.9781 18.0868C76.3767 17.8579 76.9493 17.708 77.7572 17.708V16.708ZM75.4802 17.2195L74.9824 16.3522C74.0141 16.9081 73.5892 17.8599 73.5892 18.952H74.5892H75.5892C75.5892 18.4161 75.7584 18.2129 75.9781 18.0868L75.4802 17.2195ZM74.5892 18.952H73.5892C73.5892 19.8595 73.9752 20.635 74.6519 21.2348L75.3153 20.4865L75.9786 19.7382C75.6873 19.48 75.5892 19.2325 75.5892 18.952H74.5892ZM75.3153 20.4865L74.6519 21.2348C75.4041 21.9016 76.4698 22.13 77.6252 22.13V21.13V20.13C76.6687 20.13 76.1944 19.9294 75.9786 19.7382L75.3153 20.4865ZM77.6252 21.13V22.13C78.5761 22.13 79.4516 21.9204 80.2027 21.4491L79.6712 20.602L79.1398 19.7549C78.7689 19.9876 78.2804 20.13 77.6252 20.13V21.13ZM79.6712 20.602L80.2027 21.4491C80.8943 21.0152 81.4447 20.453 81.821 19.7583L80.9417 19.282L80.0625 18.8057C79.8668 19.167 79.5702 19.4848 79.1398 19.7549L79.6712 20.602ZM80.9417 19.282L81.8133 19.7723C82.182 19.1169 82.3872 18.4217 82.3872 17.698H81.3872H80.3872C80.3872 18.0303 80.2955 18.3911 80.0702 18.7917L80.9417 19.282ZM81.3872 17.698V18.698H82.3112V17.698V16.698H81.3872V17.698ZM82.3112 17.698H81.3112C81.3112 18.7261 81.121 19.6551 80.7518 20.4976L81.6677 20.899L82.5837 21.3004C83.0725 20.1849 83.3112 18.9799 83.3112 17.698H82.3112ZM81.6677 20.899L80.7535 20.4938C80.397 21.2982 79.8769 21.9268 79.1868 22.4018L79.7537 23.2255L80.3207 24.0492C81.3246 23.3582 82.0805 22.4358 82.582 21.3042L81.6677 20.899ZM79.7537 23.2255L79.1817 22.4053C78.5474 22.8476 77.7193 23.1 76.6353 23.1V24.1V25.1C78.0372 25.1 79.2881 24.7694 80.3258 24.0457L79.7537 23.2255ZM86.699 23.638H85.699V24.638H86.699V23.638ZM86.699 0.999998V-1.90735e-06H85.699V0.999998H86.699ZM90.593 0.999998H91.593V-1.90735e-06H90.593V0.999998ZM90.593 23.638V24.638H91.593V23.638H90.593ZM86.699 23.638H87.699V0.999998H86.699H85.699V23.638H86.699ZM86.699 0.999998V2H90.593V0.999998V-1.90735e-06H86.699V0.999998ZM90.593 0.999998H89.593V23.638H90.593H91.593V0.999998H90.593ZM90.593 23.638V22.638H86.699V23.638V24.638H90.593V23.638ZM94.6912 23.044L94.1461 23.8825L94.1559 23.8887L94.6912 23.044ZM92.0512 20.0575L91.1582 20.5078L91.1629 20.5169L92.0512 20.0575ZM92.0182 11.131L91.1253 10.6807L91.1237 10.6838L92.0182 11.131ZM94.5592 8.2105L95.1017 9.05054L95.1038 9.04914L94.5592 8.2105ZM101.192 8.029L100.642 8.86432L100.65 8.86914L101.192 8.029ZM103.882 14.629V15.629H104.882V14.629H103.882ZM102.661 14.629H101.661V15.629H102.661V14.629ZM102.149 12.5005L101.282 12.9984L101.286 13.0054L102.149 12.5005ZM100.796 11.1475L100.294 12.0125L100.305 12.0184L100.315 12.0241L100.796 11.1475ZM96.9187 11.2795L96.3605 10.4497L96.3534 10.4546L96.9187 11.2795ZM95.5162 12.9955L96.4213 13.4206L96.4237 13.4154L95.5162 12.9955ZM95.5162 18.193L96.4261 17.7782V17.7782L95.5162 18.193ZM96.9187 19.942L96.3431 20.7598L96.3502 20.7647L96.9187 19.942ZM100.73 20.074L101.237 20.9359L101.242 20.9329L100.73 20.074ZM102.116 18.655L101.259 18.1405L101.252 18.1521L102.116 18.655ZM102.661 16.543V15.543H101.661V16.543H102.661ZM103.882 16.543H104.882V15.543H103.882V16.543ZM103.123 20.7505L102.211 20.3394L102.209 20.3435L103.123 20.7505ZM101.126 23.2585L100.569 22.4281V22.4281L101.126 23.2585ZM103.387 23.638L102.403 23.8183L102.553 24.638H103.387V23.638ZM102.661 19.678H101.661V19.7689L101.677 19.8583L102.661 19.678ZM102.661 0.999998V-1.90735e-06H101.661V0.999998H102.661ZM106.588 0.999998H107.588V-1.90735e-06H106.588V0.999998ZM106.588 23.638V24.638H107.588V23.638H106.588ZM98.3707 24.1V23.1C97.2141 23.1 96.1739 22.7997 95.2264 22.1993L94.6912 23.044L94.1559 23.8887C95.4304 24.6963 96.8432 25.1 98.3707 25.1V24.1ZM94.6912 23.044L95.2361 22.2056C94.295 21.5938 93.5275 20.7351 92.9394 19.5981L92.0512 20.0575L91.1629 20.5169C91.8948 21.9319 92.8873 23.0642 94.1462 23.8824L94.6912 23.044ZM92.0512 20.0575L92.944 19.6072C92.3777 18.4841 92.0776 17.1422 92.0776 15.553H91.0776H90.0776C90.0776 17.3958 90.4266 19.0569 91.1583 20.5078L92.0512 20.0575ZM91.0776 15.553H92.0776C92.0776 13.9823 92.368 12.6674 92.9126 11.5782L92.0182 11.131L91.1237 10.6838C90.4143 12.1026 90.0776 13.7357 90.0776 15.553H91.0776ZM92.0182 11.131L92.911 11.5813C93.4793 10.4545 94.2133 9.62429 95.1017 9.05054L94.5592 8.2105L94.0166 7.37046C92.793 8.16071 91.833 9.27754 91.1253 10.6807L92.0182 11.131ZM94.5592 8.2105L95.1038 9.04914C96.0053 8.46368 96.9979 8.171 98.1067 8.171V7.171V6.171C96.6194 6.171 95.247 6.57132 94.0145 7.37186L94.5592 8.2105ZM98.1067 7.171V8.171C99.1278 8.171 99.9589 8.41442 100.642 8.86429L101.192 8.029L101.742 7.19371C100.687 6.49958 99.4615 6.171 98.1067 6.171V7.171ZM101.192 8.029L100.65 8.86914C101.322 9.30309 101.868 9.9657 102.265 10.921L103.189 10.537L104.112 10.153C103.585 8.8863 102.8 7.87691 101.735 7.18886L101.192 8.029ZM103.189 10.537L102.265 10.921C102.663 11.8762 102.882 13.1011 102.882 14.629H103.882H104.882C104.882 12.9229 104.639 11.4198 104.112 10.153L103.189 10.537ZM103.882 14.629V13.629H102.661V14.629V15.629H103.882V14.629ZM102.661 14.629H103.661C103.661 13.6574 103.462 12.7643 103.012 11.9956L102.149 12.5005L101.286 13.0054C101.518 13.4027 101.661 13.9286 101.661 14.629H102.661ZM102.149 12.5005L103.016 12.0026C102.591 11.261 102.011 10.6736 101.277 10.2709L100.796 11.1475L100.315 12.0241C100.704 12.2374 101.026 12.552 101.282 12.9984L102.149 12.5005ZM100.796 11.1475L101.298 10.2825C100.592 9.87316 99.819 9.669 98.9977 9.669V10.669V11.669C99.4743 11.669 99.9001 11.7838 100.294 12.0125L100.796 11.1475ZM98.9977 10.669V9.669C98.0326 9.669 97.1424 9.92378 96.3605 10.4498L96.9187 11.2795L97.4768 12.1092C97.9049 11.8212 98.4007 11.669 98.9977 11.669V10.669ZM96.9187 11.2795L96.3534 10.4546C95.5927 10.9758 95.0153 11.6966 94.6086 12.5756L95.5162 12.9955L96.4237 13.4154C96.699 12.8204 97.0566 12.3972 97.4839 12.1044L96.9187 11.2795ZM95.5162 12.9955L94.611 12.5704C94.1953 13.4554 94.0047 14.4588 94.0047 15.553H95.0047H96.0047C96.0047 14.6892 96.155 13.9876 96.4213 13.4206L95.5162 12.9955ZM95.0047 15.553H94.0047C94.0047 16.6759 94.1938 17.7031 94.6062 18.6078L95.5162 18.193L96.4261 17.7782C96.1565 17.1869 96.0047 16.4541 96.0047 15.553H95.0047ZM95.5162 18.193L94.6062 18.6078C95.011 19.4957 95.5855 20.2266 96.3432 20.7598L96.9187 19.942L97.4941 19.1242C97.0638 18.8214 96.7033 18.3863 96.4261 17.7782L95.5162 18.193ZM96.9187 19.942L96.3502 20.7647C97.1279 21.3021 98.0095 21.569 98.9646 21.569V20.569V19.569C98.4018 19.569 97.9194 19.4179 97.4871 19.1193L96.9187 19.942ZM98.9646 20.569V21.569C99.7692 21.569 100.532 21.351 101.237 20.9359L100.73 20.074L100.223 19.2121C99.8068 19.457 99.3921 19.569 98.9646 19.569V20.569ZM100.73 20.074L101.242 20.9329C101.967 20.5006 102.548 19.9018 102.98 19.1579L102.116 18.655L101.252 18.1521C100.981 18.6182 100.637 18.9654 100.218 19.2151L100.73 20.074ZM102.116 18.655L102.974 19.1695C103.442 18.3885 103.661 17.5017 103.661 16.543H102.661H101.661C101.661 17.1903 101.516 17.7115 101.259 18.1405L102.116 18.655ZM102.661 16.543V17.543H103.882V16.543V15.543H102.661V16.543ZM103.882 16.543H102.882C102.882 18.1333 102.642 19.3849 102.211 20.3394L103.123 20.7505L104.034 21.1616C104.616 19.8721 104.882 18.3187 104.882 16.543H103.882ZM103.123 20.7505L102.209 20.3435C101.775 21.3187 101.219 21.9919 100.569 22.4281L101.126 23.2585L101.683 24.0889C102.705 23.4031 103.481 22.4043 104.036 21.1575L103.123 20.7505ZM101.126 23.2585L100.569 22.4281C99.8967 22.8792 99.172 23.1 98.3707 23.1V24.1V25.1C99.5713 25.1 100.684 24.7598 101.683 24.0889L101.126 23.2585ZM103.387 23.638L104.37 23.4577L103.644 19.4977L102.661 19.678L101.677 19.8583L102.403 23.8183L103.387 23.638ZM102.661 19.678H103.661V0.999998H102.661H101.661V19.678H102.661ZM102.661 0.999998V2H106.588V0.999998V-1.90735e-06H102.661V0.999998ZM106.588 0.999998H105.588V23.638H106.588H107.588V0.999998H106.588ZM106.588 23.638V22.638H103.387V23.638V24.638H106.588V23.638ZM110.672 23.044L110.144 23.8934V23.8934L110.672 23.044ZM107.949 20.0905L107.067 20.5619L107.069 20.5651L107.949 20.0905ZM107.933 11.0815L107.052 10.6069L107.049 10.6129L107.933 11.0815ZM110.655 8.1775L111.165 9.03793V9.03793L110.655 8.1775ZM117.717 7.9465L117.229 8.81927L117.241 8.82597L117.717 7.9465ZM119.961 10.0255L119.118 10.5631L119.122 10.5692L119.126 10.5753L119.961 10.0255ZM121.149 16.378V17.378H122.01L122.138 16.5273L121.149 16.378ZM110.028 16.378H109.028V17.378H110.028V16.378ZM110.028 14.266V13.266H109.028V14.266H110.028ZM118.394 14.266L118.94 15.1036L121.758 13.266H118.394V14.266ZM117.635 14.761L116.637 14.6973L116.51 16.6886L118.181 15.5986L117.635 14.761ZM117.552 13.1935L116.563 13.3378L116.564 13.3479L116.566 13.3579L117.552 13.1935ZM117.09 11.7415L117.976 11.2767V11.2767L117.09 11.7415ZM116.1 10.6855L115.551 11.5209L115.563 11.5292L115.576 11.5372L116.1 10.6855ZM112.47 10.867L111.886 10.0555V10.0555L112.47 10.867ZM111.216 12.484L110.294 12.0973V12.0973L111.216 12.484ZM111.183 18.7375L110.249 19.0935L110.254 19.1063L111.183 18.7375ZM112.388 20.371L111.788 21.171L111.796 21.1769L112.388 20.371ZM117.321 18.853V17.853H116.504L116.341 18.6539L117.321 18.853ZM121.248 18.853L122.236 19.0106L122.42 17.853H121.248V18.853ZM120.077 21.592L119.287 20.9781L119.286 20.9796L120.077 21.592ZM117.717 23.44L118.131 24.3504L118.139 24.3464L117.717 23.44ZM114.417 24.1V23.1C113.235 23.1 112.17 22.7979 111.199 22.1946L110.672 23.044L110.144 23.8934C111.439 24.6981 112.871 25.1 114.417 25.1V24.1ZM110.672 23.044L111.199 22.1946C110.226 21.5898 109.435 20.7397 108.829 19.6159L107.949 20.0905L107.069 20.5651C107.827 21.9713 108.851 23.0902 110.144 23.8934L110.672 23.044ZM107.949 20.0905L108.831 19.6191C108.239 18.512 107.926 17.1889 107.926 15.619H106.926H105.926C105.926 17.4591 106.295 19.117 107.067 20.5619L107.949 20.0905ZM106.926 15.619H107.926C107.926 13.9854 108.237 12.6413 108.816 11.5501L107.933 11.0815L107.049 10.6129C106.286 12.0517 105.926 13.7326 105.926 15.619H106.926ZM107.933 11.0815L108.813 11.5561C109.417 10.4359 110.202 9.60799 111.165 9.03793L110.655 8.1775L110.146 7.31707C108.842 8.08901 107.812 9.19714 107.052 10.6069L107.933 11.0815ZM110.655 8.1775L111.165 9.03793C112.136 8.46242 113.213 8.171 114.417 8.171V7.171V6.171C112.871 6.171 111.44 6.55058 110.146 7.31707L110.655 8.1775ZM114.417 7.171V8.171C115.557 8.171 116.482 8.40122 117.229 8.81918L117.717 7.9465L118.205 7.07382C117.104 6.45778 115.829 6.171 114.417 6.171V7.171ZM117.717 7.9465L117.241 8.82597C118.03 9.25265 118.65 9.82917 119.118 10.5631L119.961 10.0255L120.804 9.48794C120.15 8.46183 119.275 7.65235 118.193 7.06703L117.717 7.9465ZM119.961 10.0255L119.126 10.5753C119.618 11.3232 119.956 12.1792 120.132 13.1562L121.116 12.979L122.1 12.8018C121.88 11.5788 121.448 10.4658 120.796 9.47569L119.961 10.0255ZM121.116 12.979L120.132 13.1562C120.31 14.1425 120.321 15.1651 120.16 16.2287L121.149 16.378L122.138 16.5273C122.329 15.2589 122.319 14.0155 122.1 12.8018L121.116 12.979ZM121.149 16.378V15.378H110.028V16.378V17.378H121.149V16.378ZM110.028 16.378H111.028V14.266H110.028H109.028V16.378H110.028ZM110.028 14.266V15.266H118.394V14.266V13.266H110.028V14.266ZM118.394 14.266L117.847 13.4284L117.088 13.9234L117.635 14.761L118.181 15.5986L118.94 15.1036L118.394 14.266ZM117.635 14.761L118.633 14.8247C118.671 14.229 118.639 13.6299 118.539 13.0291L117.552 13.1935L116.566 13.3579C116.642 13.8131 116.665 14.259 116.637 14.6973L117.635 14.761ZM117.552 13.1935L118.542 13.0492C118.45 12.4175 118.263 11.824 117.976 11.2767L117.09 11.7415L116.205 12.2063C116.379 12.539 116.501 12.9135 116.563 13.3378L117.552 13.1935ZM117.09 11.7415L117.976 11.2767C117.66 10.6753 117.204 10.1906 116.624 9.83384L116.1 10.6855L115.576 11.5372C115.854 11.7084 116.058 11.9277 116.205 12.2063L117.09 11.7415ZM116.1 10.6855L116.65 9.85008C116.024 9.43839 115.277 9.273 114.483 9.273V10.273V11.273C115.009 11.273 115.34 11.3826 115.551 11.5209L116.1 10.6855ZM114.483 10.273V9.273C113.518 9.273 112.633 9.51721 111.886 10.0555L112.47 10.867L113.054 11.6785C113.407 11.4248 113.864 11.273 114.483 11.273V10.273ZM112.47 10.867L111.886 10.0555C111.173 10.5689 110.645 11.2613 110.294 12.0973L111.216 12.484L112.138 12.8707C112.36 12.3427 112.668 11.9571 113.054 11.6785L112.47 10.867ZM111.216 12.484L110.294 12.0973C109.949 12.9198 109.787 13.8242 109.787 14.794H110.787H111.787C111.787 14.0478 111.911 13.4122 112.138 12.8707L111.216 12.484ZM110.787 14.794H109.787V16.345H110.787H111.787V14.794H110.787ZM110.787 16.345H109.787C109.787 17.3431 109.933 18.2652 110.249 19.0935L111.183 18.7375L112.118 18.3815C111.905 17.8238 111.787 17.1509 111.787 16.345H110.787ZM111.183 18.7375L110.254 19.1063C110.588 19.9479 111.094 20.6506 111.788 21.171L112.388 20.371L112.988 19.571C112.626 19.2994 112.329 18.9131 112.113 18.3687L111.183 18.7375ZM112.388 20.371L111.796 21.1769C112.541 21.7243 113.437 21.965 114.417 21.965V20.965V19.965C113.769 19.965 113.313 19.8097 112.98 19.5651L112.388 20.371ZM114.417 20.965V21.965C115.333 21.965 116.178 21.7508 116.894 21.2636L116.331 20.437L115.768 19.6104C115.45 19.8272 115.019 19.965 114.417 19.965V20.965ZM116.331 20.437L116.894 21.2636C117.659 20.7428 118.115 19.9706 118.301 19.0521L117.321 18.853L116.341 18.6539C116.242 19.1434 116.037 19.4272 115.768 19.6104L116.331 20.437ZM117.321 18.853V19.853H121.248V18.853V17.853H117.321V18.853ZM121.248 18.853L120.261 18.6954C120.121 19.5706 119.795 20.3249 119.287 20.9781L120.077 21.592L120.866 22.2059C121.59 21.2751 122.045 20.2034 122.236 19.0106L121.248 18.853ZM120.077 21.592L119.286 20.9796C118.786 21.6246 118.13 22.1443 117.295 22.5336L117.717 23.44L118.139 24.3464C119.24 23.8337 120.157 23.1214 120.867 22.2044L120.077 21.592ZM117.717 23.44L117.303 22.5296C116.484 22.9019 115.529 23.1 114.417 23.1V24.1V25.1C115.769 25.1 117.014 24.8581 118.131 24.3504L117.717 23.44ZM143.4 23.638H142.4V24.638H143.4V23.638ZM142.542 11.5765L141.816 12.2635V12.2635L142.542 11.5765ZM137.543 12.088L136.727 11.5095V11.5095L137.543 12.088ZM136.536 16.378V17.378H137.536V16.378H136.536ZM134.919 16.378H133.919V17.378H134.919V16.378ZM135.381 12.1045L134.416 11.8429L134.414 11.8491L135.381 12.1045ZM136.718 9.2665L135.938 8.64036L135.937 8.6418L136.718 9.2665ZM138.764 7.6825L139.153 8.60371L139.164 8.59895L138.764 7.6825ZM144.638 8.062L144.078 8.89085L144.084 8.89486L144.09 8.89879L144.638 8.062ZM147.327 23.638V24.638H148.327V23.638H147.327ZM121.653 23.638H120.653V24.638H121.653V23.638ZM121.653 7.633V6.633H120.653V7.633H121.653ZM125.052 7.633L126.04 7.47826L125.908 6.633H125.052V7.633ZM125.481 10.372L124.493 10.5267L124.981 13.6383L126.377 10.8155L125.481 10.372ZM127.577 7.9795L128.096 8.83415L128.104 8.82931L127.577 7.9795ZM133.863 8.062L133.304 8.89085L133.31 8.89486L133.316 8.89879L133.863 8.062ZM135.86 10.537L134.935 10.9182L134.939 10.9263L135.86 10.537ZM136.536 23.638V24.638H137.536V23.638H136.536ZM132.642 23.638H131.642V24.638H132.642V23.638ZM131.784 11.5765L131.058 12.2635L131.058 12.2635L131.784 11.5765ZM127.461 11.3125L126.883 10.4967L126.876 10.5018L127.461 11.3125ZM126.059 13.2595L126.988 13.6288L126.99 13.6248L126.059 13.2595ZM125.547 23.638V24.638H126.547V23.638H125.547ZM143.4 23.638H144.4V14.266H143.4H142.4V23.638H143.4ZM143.4 14.266H144.4C144.4 12.9315 144.079 11.7466 143.269 10.8895L142.542 11.5765L141.816 12.2635C142.149 12.6164 142.4 13.2245 142.4 14.266H143.4ZM142.542 11.5765L143.269 10.8895C142.486 10.0617 141.464 9.669 140.298 9.669V10.669V11.669C140.981 11.669 141.454 11.8813 141.816 12.2635L142.542 11.5765ZM140.298 10.669V9.669C138.81 9.669 137.587 10.2974 136.727 11.5095L137.543 12.088L138.358 12.6665C138.841 11.9866 139.454 11.669 140.298 11.669V10.669ZM137.543 12.088L136.727 11.5095C135.881 12.7026 135.536 14.3791 135.536 16.378H136.536H137.536C137.536 14.5489 137.863 13.3654 138.358 12.6665L137.543 12.088ZM136.536 16.378V15.378H134.919V16.378V17.378H136.536V16.378ZM134.919 16.378H135.919C135.919 14.75 136.069 13.417 136.348 12.3599L135.381 12.1045L134.414 11.8491C134.078 13.124 133.919 14.64 133.919 16.378H134.919ZM135.381 12.1045L136.346 12.3661C136.641 11.2798 137.036 10.4699 137.499 9.8912L136.718 9.2665L135.937 8.6418C135.256 9.49313 134.76 10.5752 134.416 11.8429L135.381 12.1045ZM136.718 9.2665L137.497 9.89263C137.987 9.28284 138.539 8.863 139.153 8.60365L138.764 7.6825L138.374 6.76135C137.426 7.162 136.614 7.79816 135.938 8.64036L136.718 9.2665ZM138.764 7.6825L139.164 8.59895C139.805 8.31884 140.531 8.171 141.354 8.171V7.171V6.171C140.286 6.171 139.284 6.36416 138.364 6.76605L138.764 7.6825ZM141.354 7.171V8.171C142.511 8.171 143.398 8.43198 144.078 8.89085L144.638 8.062L145.197 7.23315C144.117 6.50402 142.816 6.171 141.354 6.171V7.171ZM144.638 8.062L144.09 8.89879C144.8 9.36346 145.349 10.0255 145.73 10.9263L146.651 10.537L147.572 10.1477C147.051 8.91455 146.257 7.92654 145.185 7.22521L144.638 8.062ZM146.651 10.537L145.73 10.9263C146.118 11.8458 146.327 12.9515 146.327 14.266H147.327H148.327C148.327 12.7425 148.085 11.3622 147.572 10.1477L146.651 10.537ZM147.327 14.266H146.327V23.638H147.327H148.327V14.266H147.327ZM147.327 23.638V22.638H143.4V23.638V24.638H147.327V23.638ZM121.653 23.638H122.653V7.633H121.653H120.653V23.638H121.653ZM121.653 7.633V8.633H125.052V7.633V6.633H121.653V7.633ZM125.052 7.633L124.064 7.78774L124.493 10.5267L125.481 10.372L126.469 10.2173L126.04 7.47826L125.052 7.633ZM125.481 10.372L126.377 10.8155C126.836 9.88899 127.415 9.24779 128.096 8.83412L127.577 7.9795L127.057 7.12488C126 7.76721 125.182 8.72101 124.585 9.92849L125.481 10.372ZM127.577 7.9795L128.104 8.82931C128.799 8.39791 129.609 8.171 130.563 8.171V7.171V6.171C129.274 6.171 128.092 6.48309 127.05 7.12969L127.577 7.9795ZM130.563 7.171V8.171C131.733 8.171 132.625 8.43286 133.304 8.89085L133.863 8.062L134.423 7.23315C133.341 6.50314 132.034 6.171 130.563 6.171V7.171ZM133.863 8.062L133.316 8.89879C134.024 9.36207 134.565 10.0212 134.935 10.9182L135.86 10.537L136.784 10.1558C136.274 8.9188 135.485 7.92793 134.411 7.22521L133.863 8.062ZM135.86 10.537L134.939 10.9263C135.327 11.8458 135.536 12.9515 135.536 14.266H136.536H137.536C137.536 12.7425 137.294 11.3622 136.781 10.1477L135.86 10.537ZM136.536 14.266H135.536V23.638H136.536H137.536V14.266H136.536ZM136.536 23.638V22.638H132.642V23.638V24.638H136.536V23.638ZM132.642 23.638H133.642V14.266H132.642H131.642V23.638H132.642ZM132.642 14.266H133.642C133.642 12.9315 133.321 11.7466 132.511 10.8895L131.784 11.5765L131.058 12.2635C131.391 12.6164 131.642 13.2245 131.642 14.266H132.642ZM131.784 11.5765L132.511 10.8895C131.728 10.0617 130.706 9.669 129.54 9.669V10.669V11.669C130.223 11.669 130.696 11.8813 131.058 12.2635L131.784 11.5765ZM129.54 10.669V9.669C128.564 9.669 127.666 9.94132 126.883 10.4968L127.461 11.3125L128.04 12.1282C128.466 11.8257 128.955 11.669 129.54 11.669V10.669ZM127.461 11.3125L126.876 10.5018C126.089 11.0701 125.52 11.8952 125.128 12.8942L126.059 13.2595L126.99 13.6248C127.28 12.8858 127.646 12.4129 128.047 12.1232L127.461 11.3125ZM126.059 13.2595L125.129 12.8902C124.727 13.9022 124.547 15.1098 124.547 16.477H125.547H126.547C126.547 15.2702 126.708 14.3328 126.988 13.6288L126.059 13.2595ZM125.547 16.477H124.547V23.638H125.547H126.547V16.477H125.547ZM125.547 23.638V22.638H121.653V23.638V24.638H125.547V23.638ZM158.884 23.638L157.892 23.7641L158.003 24.638H158.884V23.638ZM158.389 19.744H157.389V19.8073L157.397 19.8701L158.389 19.744ZM157.696 10.8175L156.929 11.4593L156.937 11.4683L157.696 10.8175ZM153.753 10.2895L154.128 11.2164H154.128L153.753 10.2895ZM152.68 11.098L151.868 10.5144L151.865 10.5193L152.68 11.098ZM152.317 12.352V13.352H153.317V12.352H152.317ZM148.06 12.352H147.06V13.352H148.06V12.352ZM148.935 9.3985L149.728 10.0077L149.732 10.0021L148.935 9.3985ZM151.443 7.7155L151.75 8.66704L151.756 8.66513L151.443 7.7155ZM159.016 7.8475L158.617 8.76414L158.625 8.76766L159.016 7.8475ZM161.425 9.8935L162.276 9.36715V9.36714L161.425 9.8935ZM162.283 23.638V24.638H163.283V23.638H162.283ZM150.189 23.3905L149.721 24.274L149.727 24.2774L149.733 24.2806L150.189 23.3905ZM148.126 21.493L148.987 20.9839V20.9839L148.126 21.493ZM148.225 16.411L147.436 15.7971L147.435 15.7988L148.225 16.411ZM150.502 14.86L150.831 15.8044L150.841 15.801L150.502 14.86ZM156.426 14.53L156.257 15.5156L156.259 15.516L156.426 14.53ZM158.752 15.058H159.752V14.3037L159.027 14.0965L158.752 15.058ZM158.752 17.335L158.441 18.2854L159.752 18.7145V17.335H158.752ZM156.772 16.873L156.924 15.8846V15.8846L156.772 16.873ZM152.482 17.2195L151.985 16.3522V16.3522L152.482 17.2195ZM152.317 20.4865L152.981 19.7382V19.7382L152.317 20.4865ZM156.673 20.602L156.142 19.7549V19.7549L156.673 20.602ZM157.944 19.282L157.072 18.7917L157.068 18.7987L157.065 18.8057L157.944 19.282ZM158.389 17.698V16.698H157.389V17.698H158.389ZM159.313 17.698H160.313V16.698H159.313V17.698ZM158.67 20.899L159.584 21.3042L159.586 21.3004L158.67 20.899ZM156.756 23.2255L156.189 22.4018L156.184 22.4053L156.756 23.2255ZM158.884 23.638L159.876 23.5119L159.381 19.6179L158.389 19.744L157.397 19.8701L157.892 23.7641L158.884 23.638ZM158.389 19.744H159.389V13.309H158.389H157.389V19.744H158.389ZM158.389 13.309H159.389C159.389 12.0794 159.141 10.9664 158.456 10.1667L157.696 10.8175L156.937 11.4683C157.176 11.7466 157.389 12.2946 157.389 13.309H158.389ZM157.696 10.8175L158.463 10.1758C157.738 9.30879 156.608 9.009 155.386 9.009V10.009V11.009C156.343 11.009 156.753 11.2482 156.929 11.4592L157.696 10.8175ZM155.386 10.009V9.009C154.663 9.009 153.985 9.11662 153.378 9.36255L153.753 10.2895L154.128 11.2164C154.444 11.0884 154.856 11.009 155.386 11.009V10.009ZM153.753 10.2895L153.378 9.36255C152.767 9.60958 152.247 9.98705 151.868 10.5144L152.68 11.098L153.492 11.6816C153.619 11.5049 153.814 11.3434 154.128 11.2164L153.753 10.2895ZM152.68 11.098L151.865 10.5193C151.482 11.0587 151.317 11.6887 151.317 12.352H152.317H153.317C153.317 12.0253 153.395 11.8193 153.496 11.6767L152.68 11.098ZM152.317 12.352V11.352H148.06V12.352V13.352H152.317V12.352ZM148.06 12.352H149.06C149.06 11.3033 149.311 10.5503 149.728 10.0077L148.935 9.3985L148.142 8.78934C147.393 9.76472 147.06 10.9807 147.06 12.352H148.06ZM148.935 9.3985L149.732 10.0021C150.17 9.42399 150.82 8.96793 151.75 8.66703L151.443 7.7155L151.135 6.76397C149.888 7.16707 148.866 7.83301 148.138 8.79486L148.935 9.3985ZM151.443 7.7155L151.756 8.66513C152.729 8.34423 153.932 8.171 155.386 8.171V7.171V6.171C153.783 6.171 152.357 6.36077 151.13 6.76587L151.443 7.7155ZM155.386 7.171V8.171C156.665 8.171 157.734 8.37916 158.617 8.7641L159.016 7.8475L159.416 6.9309C158.231 6.41384 156.879 6.171 155.386 6.171V7.171ZM159.016 7.8475L158.625 8.76766C159.476 9.12979 160.116 9.67756 160.575 10.4199L161.425 9.8935L162.276 9.36714C161.591 8.26143 160.625 7.44521 159.408 6.92735L159.016 7.8475ZM161.425 9.8935L160.575 10.4199C161.022 11.1421 161.283 12.1269 161.283 13.441H162.283H163.283C163.283 11.8731 162.973 10.4929 162.276 9.36715L161.425 9.8935ZM162.283 13.441H161.283V23.638H162.283H163.283V13.441H162.283ZM162.283 23.638V22.638H158.884V23.638V24.638H162.283V23.638ZM153.637 24.1V23.1C152.371 23.1 151.389 22.8816 150.645 22.5004L150.189 23.3905L149.733 24.2806C150.836 24.8454 152.153 25.1 153.637 25.1V24.1ZM150.189 23.3905L150.657 22.507C149.884 22.097 149.343 21.5852 148.987 20.9839L148.126 21.493L147.266 22.0021C147.834 22.9628 148.668 23.716 149.721 24.274L150.189 23.3905ZM148.126 21.493L148.987 20.9839C148.617 20.358 148.433 19.687 148.433 18.952H147.433H146.433C146.433 20.043 146.712 21.066 147.266 22.0021L148.126 21.493ZM147.433 18.952H148.433C148.433 18.1217 148.646 17.5008 149.016 17.0232L148.225 16.411L147.435 15.7988C146.748 16.6852 146.433 17.7583 146.433 18.952H147.433ZM148.225 16.411L149.015 17.0249C149.415 16.5099 150.001 16.0936 150.831 15.8044L150.502 14.86L150.173 13.9156C149.046 14.3084 148.113 14.9261 147.436 15.7971L148.225 16.411ZM150.502 14.86L150.841 15.801C151.686 15.4972 152.721 15.332 153.967 15.332V14.332V13.332C152.552 13.332 151.277 13.5188 150.164 13.919L150.502 14.86ZM153.967 14.332V15.332C154.786 15.332 155.549 15.3942 156.257 15.5156L156.426 14.53L156.595 13.5444C155.763 13.4018 154.887 13.332 153.967 13.332V14.332ZM156.426 14.53L156.259 15.516C157.003 15.6418 157.743 15.8096 158.478 16.0195L158.752 15.058L159.027 14.0965C158.222 13.8664 157.41 13.6822 156.593 13.544L156.426 14.53ZM158.752 15.058H157.752V17.335H158.752H159.752V15.058H158.752ZM158.752 17.335L159.063 16.3846C158.4 16.1675 157.686 16.0018 156.924 15.8846L156.772 16.873L156.62 17.8614C157.289 17.9642 157.895 18.1065 158.441 18.2854L158.752 17.335ZM156.772 16.873L156.924 15.8846C156.167 15.768 155.444 15.708 154.759 15.708V16.708V17.708C155.328 17.708 155.948 17.758 156.62 17.8614L156.772 16.873ZM154.759 16.708V15.708C153.719 15.708 152.774 15.8991 151.985 16.3522L152.482 17.2195L152.98 18.0868C153.379 17.8579 153.951 17.708 154.759 17.708V16.708ZM152.482 17.2195L151.985 16.3522C151.016 16.9081 150.591 17.8599 150.591 18.952H151.591H152.591C152.591 18.4161 152.761 18.2129 152.98 18.0868L152.482 17.2195ZM151.591 18.952H150.591C150.591 19.8595 150.977 20.635 151.654 21.2348L152.317 20.4865L152.981 19.7382C152.689 19.48 152.591 19.2325 152.591 18.952H151.591ZM152.317 20.4865L151.654 21.2348C152.406 21.9016 153.472 22.13 154.627 22.13V21.13V20.13C153.671 20.13 153.197 19.9294 152.981 19.7382L152.317 20.4865ZM154.627 21.13V22.13C155.578 22.13 156.454 21.9204 157.205 21.4491L156.673 20.602L156.142 19.7549C155.771 19.9876 155.283 20.13 154.627 20.13V21.13ZM156.673 20.602L157.205 21.4491C157.896 21.0152 158.447 20.453 158.823 19.7583L157.944 19.282L157.065 18.8057C156.869 19.167 156.572 19.4848 156.142 19.7549L156.673 20.602ZM157.944 19.282L158.815 19.7723C159.184 19.1169 159.389 18.4217 159.389 17.698H158.389H157.389C157.389 18.0303 157.298 18.3911 157.072 18.7917L157.944 19.282ZM158.389 17.698V18.698H159.313V17.698V16.698H158.389V17.698ZM159.313 17.698H158.313C158.313 18.7261 158.123 19.6551 157.754 20.4976L158.67 20.899L159.586 21.3004C160.075 20.1849 160.313 18.9799 160.313 17.698H159.313ZM158.67 20.899L157.756 20.4938C157.399 21.2982 156.879 21.9268 156.189 22.4018L156.756 23.2255L157.323 24.0492C158.327 23.3582 159.083 22.4358 159.584 21.3042L158.67 20.899ZM156.756 23.2255L156.184 22.4053C155.55 22.8476 154.721 23.1 153.637 23.1V24.1V25.1C155.039 25.1 156.29 24.7694 157.328 24.0457L156.756 23.2255ZM163.701 23.638H162.701V24.638H163.701V23.638ZM163.701 7.567V6.567H162.701V7.567H163.701ZM167.595 7.567H168.595V6.567H167.595V7.567ZM167.595 23.638V24.638H168.595V23.638H167.595ZM166.638 16.609H165.638V17.609H166.638V16.609ZM167.348 11.395L166.402 11.0697V11.0697L167.348 11.395ZM169.245 8.3425L169.885 9.11072L169.886 9.10986L169.245 8.3425ZM172.661 7.3855L172.519 8.37547L172.525 8.37633L172.661 7.3855ZM173.37 7.534L174.37 7.55095L174.383 6.78337L173.645 6.57248L173.37 7.534ZM173.304 11.428L173.079 12.4024L174.283 12.6802L174.304 11.4449L173.304 11.428ZM172.38 11.263L172.512 10.2718V10.2718L172.38 11.263ZM169.328 11.824L169.907 12.6388L169.91 12.6367L169.328 11.824ZM168.024 13.639L167.086 13.2921L167.082 13.3035L168.024 13.639ZM167.595 16.609V17.609H168.595V16.609H167.595ZM163.701 23.638H164.701V7.567H163.701H162.701V23.638H163.701ZM163.701 7.567V8.567H167.595V7.567V6.567H163.701V7.567ZM167.595 7.567H166.595V23.638H167.595H168.595V7.567H167.595ZM167.595 23.638V22.638H163.701V23.638V24.638H167.595V23.638ZM166.638 16.609H167.638C167.638 14.5738 167.868 12.9553 168.293 11.7203L167.348 11.395L166.402 11.0697C165.881 12.5847 165.638 14.4422 165.638 16.609H166.638ZM167.348 11.395L168.293 11.7203C168.73 10.4506 169.28 9.61523 169.885 9.11072L169.245 8.3425L168.605 7.57428C167.626 8.38977 166.911 9.58941 166.402 11.0697L167.348 11.395ZM169.245 8.3425L169.886 9.10986C170.523 8.57799 171.19 8.336 171.918 8.336V7.336V6.336C170.688 6.336 169.573 6.76501 168.604 7.57514L169.245 8.3425ZM171.918 7.336V8.336C172.141 8.336 172.341 8.34994 172.519 8.37545L172.661 7.3855L172.802 6.39555C172.519 6.35505 172.223 6.336 171.918 6.336V7.336ZM172.661 7.3855L172.525 8.37633C172.721 8.403 172.911 8.44282 173.095 8.49552L173.37 7.534L173.645 6.57248C173.367 6.49318 173.084 6.434 172.796 6.39467L172.661 7.3855ZM173.37 7.534L172.37 7.51705L172.304 11.4111L173.304 11.428L174.304 11.4449L174.37 7.55095L173.37 7.534ZM173.304 11.428L173.529 10.4536C173.209 10.3797 172.869 10.3194 172.512 10.2718L172.38 11.263L172.248 12.2542C172.551 12.2946 172.828 12.3443 173.079 12.4024L173.304 11.428ZM172.38 11.263L172.512 10.2718C172.149 10.2234 171.807 10.197 171.489 10.197V11.197V12.197C171.699 12.197 171.951 12.2146 172.248 12.2542L172.38 11.263ZM171.489 11.197V10.197C170.464 10.197 169.529 10.4491 168.745 11.0113L169.328 11.824L169.91 12.6367C170.292 12.3629 170.798 12.197 171.489 12.197V11.197ZM169.328 11.824L168.748 11.0092C167.979 11.5561 167.437 12.3426 167.086 13.2921L168.024 13.639L168.962 13.9859C169.205 13.3294 169.532 12.9059 169.907 12.6388L169.328 11.824ZM168.024 13.639L167.082 13.3035C166.746 14.2466 166.595 15.358 166.595 16.609H167.595H168.595C168.595 15.506 168.73 14.6374 168.966 13.9745L168.024 13.639ZM167.595 16.609V15.609H166.638V16.609V17.609H167.595V16.609ZM49.1545 46.714L49.7032 45.878L49.1545 46.714ZM45.7885 42.853L44.8929 43.2979L44.8965 43.305L45.7885 42.853ZM45.31 32.3425L44.373 31.993L44.3706 31.9996L45.31 32.3425ZM50.6725 26.5675L51.0524 27.4925L51.0595 27.4896L50.6725 26.5675ZM59.7145 27.0955L59.1741 27.9369L59.1772 27.9389L59.7145 27.0955ZM62.899 31.204L63.1244 32.1783L64.2664 31.914L63.8256 30.8279L62.899 31.204ZM58.906 32.128L58.054 32.6515L58.4306 33.2644L59.1314 33.1023L58.906 32.128ZM56.959 30.049L56.4043 30.8811L56.4115 30.8859L56.4189 30.8906L56.959 30.049ZM51.5965 30.2635L52.1748 31.0793L52.1816 31.0744L51.5965 30.2635ZM49.5175 32.92L48.6048 32.5114V32.5114L49.5175 32.92ZM49.4185 40.972L48.4906 41.345L48.4938 41.3527L49.4185 40.972ZM51.349 43.5955L51.9541 42.7993V42.7993L51.349 43.5955ZM56.695 43.9255L57.184 44.7978L57.1883 44.7953L56.695 43.9255ZM58.4275 42.1435L57.5539 41.6568L57.5486 41.6664L58.4275 42.1435ZM59.071 39.355V38.355H58.071V39.355H59.071ZM59.929 39.355H60.929V38.355H59.929V39.355ZM59.2855 43.9915L58.3352 43.6801L58.3329 43.6873L59.2855 43.9915ZM57.322 47.0275L56.6961 46.2476V46.2476L57.322 47.0275ZM59.632 47.638L58.639 47.7561L58.7438 48.638H59.632V47.638ZM59.071 42.919H58.071V42.9782L58.078 43.037L59.071 42.919ZM59.071 39.223H60.071V38.2433L59.0915 38.2232L59.071 39.223ZM54.253 39.124H53.253V40.1037L54.2325 40.1238L54.253 39.124ZM54.253 36.649V35.649H53.253V36.649H54.253ZM62.8 36.649H63.8V35.649H62.8V36.649ZM62.8 47.638V48.638H63.8V47.638H62.8ZM53.89 48.1V47.1C52.328 47.1 50.9417 46.6907 49.7032 45.878L49.1545 46.714L48.6058 47.55C50.1833 48.5853 51.954 49.1 53.89 49.1V48.1ZM49.1545 46.714L49.7032 45.878C48.4553 45.059 47.4456 43.9109 46.6805 42.401L45.7885 42.853L44.8965 43.305C45.8034 45.0951 47.0377 46.521 48.6058 47.55L49.1545 46.714ZM45.7885 42.853L46.6841 42.4082C45.9398 40.9095 45.551 39.1311 45.551 37.045H44.551H43.551C43.551 39.3809 43.9872 41.4745 44.8929 43.2978L45.7885 42.853ZM44.551 37.045H45.551C45.551 35.3918 45.7901 33.9433 46.2494 32.6854L45.31 32.3425L44.3706 31.9996C43.8179 33.5137 43.551 35.2002 43.551 37.045H44.551ZM45.31 32.3425L46.2469 32.692C46.7228 31.4163 47.3721 30.3501 48.1863 29.477L47.455 28.795L46.7237 28.113C45.7119 29.1979 44.9312 30.4967 44.3731 31.993L45.31 32.3425ZM47.455 28.795L48.1863 29.477C49.0016 28.6028 49.9544 27.9435 51.0524 27.4925L50.6725 26.5675L50.2926 25.6425C48.9266 26.2035 47.7344 27.0292 46.7237 28.113L47.455 28.795ZM50.6725 26.5675L51.0595 27.4896C52.1596 27.0279 53.3633 26.792 54.682 26.792V25.792V24.792C53.1187 24.792 51.6494 25.0731 50.2855 25.6454L50.6725 26.5675ZM54.682 25.792V26.792C56.5393 26.792 58.0177 27.1942 59.1741 27.9369L59.7145 27.0955L60.2549 26.2541C58.7053 25.2588 56.8287 24.792 54.682 24.792V25.792ZM59.7145 27.0955L59.1772 27.9389C60.3268 28.6713 61.272 29.8544 61.9724 31.5801L62.899 31.204L63.8256 30.8279C63.008 28.8136 61.8302 27.2577 60.2518 26.2521L59.7145 27.0955ZM62.899 31.204L62.6736 30.2297L58.6806 31.1537L58.906 32.128L59.1314 33.1023L63.1244 32.1783L62.899 31.204ZM58.906 32.128L59.758 31.6045C59.1356 30.5915 58.3878 29.7778 57.4991 29.2074L56.959 30.049L56.4189 30.8906C57.0042 31.2662 57.5544 31.8385 58.054 32.6515L58.906 32.128ZM56.959 30.049L57.5137 29.2169C56.6135 28.6168 55.5932 28.323 54.484 28.323V29.323V30.323C55.2228 30.323 55.8525 30.5132 56.4043 30.8811L56.959 30.049ZM54.484 29.323V28.323C53.2146 28.323 52.048 28.7046 51.0114 29.4525L51.5965 30.2635L52.1816 31.0744C52.883 30.5684 53.6414 30.323 54.484 30.323V29.323ZM51.5965 30.2635L51.0182 29.4477C49.978 30.185 49.181 31.2241 48.6048 32.5114L49.5175 32.92L50.4302 33.3286C50.888 32.3059 51.477 31.574 52.1748 31.0793L51.5965 30.2635ZM49.5175 32.92L48.6048 32.5114C48.0173 33.8238 47.742 35.3447 47.742 37.045H48.742H49.742C49.742 35.5553 49.9837 34.3262 50.4302 33.3286L49.5175 32.92ZM48.742 37.045H47.742C47.742 38.6395 47.9822 40.0799 48.4907 41.345L49.4185 40.972L50.3463 40.599C49.9528 39.6201 49.742 38.4425 49.742 37.045H48.742ZM49.4185 40.972L48.4938 41.3527C49.0118 42.6108 49.7548 43.6399 50.7439 44.3917L51.349 43.5955L51.9541 42.7993C51.2932 42.2971 50.7492 41.5772 50.3432 40.5913L49.4185 40.972ZM51.349 43.5955L50.7439 44.3917C51.7522 45.1579 52.9244 45.536 54.22 45.536V44.536V43.536C53.3376 43.536 52.5958 43.2871 51.9541 42.7993L51.349 43.5955ZM54.22 44.536V45.536C55.296 45.536 56.2927 45.2975 57.184 44.7978L56.695 43.9255L56.206 43.0532C55.6453 43.3675 54.992 43.536 54.22 43.536V44.536ZM56.695 43.9255L57.1883 44.7953C58.0938 44.2818 58.8023 43.5491 59.3064 42.6206L58.4275 42.1435L57.5486 41.6664C57.2167 42.2779 56.7702 42.7332 56.2017 43.0557L56.695 43.9255ZM58.4275 42.1435L59.3011 42.6302C59.8304 41.6802 60.071 40.5747 60.071 39.355H59.071H58.071C58.071 40.3133 57.8826 41.0668 57.5539 41.6568L58.4275 42.1435ZM59.071 39.355V40.355H59.929V39.355V38.355H59.071V39.355ZM59.929 39.355H58.929C58.929 41.0606 58.7232 42.4961 58.3352 43.6801L59.2855 43.9915L60.2358 44.3029C60.7058 42.8689 60.929 41.2134 60.929 39.355H59.929ZM59.2855 43.9915L58.3329 43.6873C57.9624 44.8476 57.4051 45.6787 56.6961 46.2476L57.322 47.0275L57.9479 47.8074C59.0209 46.9463 59.7726 45.7534 60.2381 44.2957L59.2855 43.9915ZM57.322 47.0275L56.6961 46.2476C56.0195 46.7905 55.1117 47.1 53.89 47.1V48.1V49.1C55.4623 49.1 56.8425 48.6945 57.9479 47.8074L57.322 47.0275ZM59.632 47.638L60.625 47.52L60.064 42.8009L59.071 42.919L58.078 43.037L58.639 47.7561L59.632 47.638ZM59.071 42.919H60.071V39.223H59.071H58.071V42.919H59.071ZM59.071 39.223L59.0915 38.2232L54.2735 38.1242L54.253 39.124L54.2325 40.1238L59.0505 40.2228L59.071 39.223ZM54.253 39.124H55.253V36.649H54.253H53.253V39.124H54.253ZM54.253 36.649V37.649H62.8V36.649V35.649H54.253V36.649ZM62.8 36.649H61.8V47.638H62.8H63.8V36.649H62.8ZM62.8 47.638V46.638H59.632V47.638V48.638H62.8V47.638ZM64.607 28.102L63.9094 28.8185L63.9189 28.8278L63.9287 28.8368L64.607 28.102ZM64.607 24.769L65.3046 25.4855L65.3049 25.4852L64.607 24.769ZM68.1545 24.769L67.4566 25.4853L67.4662 25.4945L68.1545 24.769ZM68.1545 28.102L68.8329 28.8369L68.8428 28.8275L68.1545 28.102ZM64.442 47.638H63.442V48.638H64.442V47.638ZM64.442 31.567V30.567H63.442V31.567H64.442ZM68.336 31.567H69.336V30.567H68.336V31.567ZM68.336 47.638V48.638H69.336V47.638H68.336ZM66.389 28.696V27.696C65.8037 27.696 65.4795 27.5464 65.2853 27.3672L64.607 28.102L63.9287 28.8368C64.5925 29.4496 65.4563 29.696 66.389 29.696V28.696ZM64.607 28.102L65.3046 27.3855C65.122 27.2077 64.98 26.9291 64.98 26.419H63.98H62.98C62.98 27.3389 63.256 28.1823 63.9094 28.8185L64.607 28.102ZM63.98 26.419H64.98C64.98 25.9412 65.1159 25.6692 65.3046 25.4855L64.607 24.769L63.9094 24.0525C63.2621 24.6828 62.98 25.5108 62.98 26.419H63.98ZM64.607 24.769L65.3049 25.4852C65.5007 25.2944 65.8178 25.142 66.389 25.142V24.142V23.142C65.4422 23.142 64.5713 23.4076 63.9091 24.0528L64.607 24.769ZM66.389 24.142V25.142C66.9446 25.142 67.2581 25.2918 67.4566 25.4852L68.1545 24.769L68.8524 24.0528C68.1929 23.4102 67.3295 23.142 66.389 23.142V24.142ZM68.1545 24.769L67.4662 25.4945C67.6618 25.68 67.798 25.9491 67.798 26.419H68.798H69.798C69.798 25.5029 69.5052 24.672 68.8428 24.0435L68.1545 24.769ZM68.798 26.419H67.798C67.798 26.9214 67.6555 27.197 67.4662 27.3765L68.1545 28.102L68.8428 28.8275C69.5116 28.193 69.798 27.3466 69.798 26.419H68.798ZM68.1545 28.102L67.4762 27.3672C67.2795 27.5488 66.9588 27.696 66.389 27.696V28.696V29.696C67.3152 29.696 68.1715 29.4472 68.8328 28.8368L68.1545 28.102ZM64.442 47.638H65.442V31.567H64.442H63.442V47.638H64.442ZM64.442 31.567V32.567H68.336V31.567V30.567H64.442V31.567ZM68.336 31.567H67.336V47.638H68.336H69.336V31.567H68.336ZM68.336 47.638V46.638H64.442V47.638V48.638H68.336V47.638ZM72.8776 47.044L72.3499 47.8934V47.8934L72.8776 47.044ZM70.1551 44.0905L69.2732 44.5619L69.2749 44.5651L70.1551 44.0905ZM70.1386 35.0815L69.2584 34.6069L69.2552 34.6129L70.1386 35.0815ZM72.8611 32.1775L73.3707 33.0379V33.0379L72.8611 32.1775ZM79.9231 31.9465L79.4348 32.8193L79.4472 32.826L79.9231 31.9465ZM82.1671 34.0255L81.3239 34.5631L81.3278 34.5692L81.3318 34.5753L82.1671 34.0255ZM83.3551 40.378V41.378H84.2155L84.3439 40.5273L83.3551 40.378ZM72.2341 40.378H71.2341V41.378H72.2341V40.378ZM72.2341 38.266V37.266H71.2341V38.266H72.2341ZM80.5996 38.266L81.1459 39.1036L83.9636 37.266H80.5996V38.266ZM79.8406 38.761L78.8427 38.6973L78.7156 40.6886L80.3869 39.5986L79.8406 38.761ZM79.7581 37.1935L78.7686 37.3378L78.7701 37.3479L78.7717 37.3579L79.7581 37.1935ZM79.2961 35.7415L80.1815 35.2767H80.1815L79.2961 35.7415ZM78.3061 34.6855L77.7565 35.5209L77.7692 35.5292L77.782 35.5372L78.3061 34.6855ZM74.6761 34.867L74.0918 34.0555V34.0555L74.6761 34.867ZM73.4221 36.484L72.4999 36.0973V36.0973L73.4221 36.484ZM73.3891 42.7375L72.4546 43.0935L72.4596 43.1063L73.3891 42.7375ZM74.5936 44.371L73.9936 45.171L74.0016 45.1769L74.5936 44.371ZM79.5271 42.853V41.853H78.7098L78.5471 42.6539L79.5271 42.853ZM83.4541 42.853L84.4416 43.0106L84.6264 41.853H83.4541V42.853ZM82.2826 45.592L81.4933 44.9781L81.4921 44.9796L82.2826 45.592ZM79.9231 47.44L80.337 48.3504L80.3455 48.3464L79.9231 47.44ZM76.6231 48.1V47.1C75.4412 47.1 74.3762 46.7979 73.4054 46.1946L72.8776 47.044L72.3499 47.8934C73.645 48.6981 75.077 49.1 76.6231 49.1V48.1ZM72.8776 47.044L73.4054 46.1946C72.432 45.5898 71.6412 44.7397 71.0354 43.6159L70.1551 44.0905L69.2749 44.5651C70.0331 45.9713 71.0573 47.0902 72.3499 47.8934L72.8776 47.044ZM70.1551 44.0905L71.0371 43.6191C70.4453 42.512 70.1321 41.1889 70.1321 39.619H69.1321H68.1321C68.1321 41.4591 68.5009 43.117 69.2732 44.5619L70.1551 44.0905ZM69.1321 39.619H70.1321C70.1321 37.9855 70.4432 36.6413 71.022 35.5501L70.1386 35.0815L69.2552 34.6129C68.4921 36.0517 68.1321 37.7326 68.1321 39.619H69.1321ZM70.1386 35.0815L71.0189 35.5561C71.6228 34.4359 72.4081 33.608 73.3707 33.0379L72.8611 32.1775L72.3516 31.3171C71.0481 32.089 70.0185 33.1971 69.2584 34.6069L70.1386 35.0815ZM72.8611 32.1775L73.3707 33.0379C74.3425 32.4624 75.4192 32.171 76.6231 32.171V31.171V30.171C75.0771 30.171 73.6458 30.5506 72.3516 31.3171L72.8611 32.1775ZM76.6231 31.171V32.171C77.7631 32.171 78.6879 32.4012 79.4348 32.8192L79.9231 31.9465L80.4114 31.0738C79.3104 30.4578 78.0351 30.171 76.6231 30.171V31.171ZM79.9231 31.9465L79.4472 32.826C80.2356 33.2527 80.8561 33.8292 81.3239 34.5631L82.1671 34.0255L83.0104 33.4879C82.3562 32.4618 81.4807 31.6523 80.3991 31.067L79.9231 31.9465ZM82.1671 34.0255L81.3318 34.5753C81.8242 35.3232 82.1621 36.1792 82.338 37.1562L83.3221 36.979L84.3063 36.8018C84.0862 35.5788 83.6541 34.4658 83.0024 33.4757L82.1671 34.0255ZM83.3221 36.979L82.338 37.1562C82.5155 38.1425 82.5269 39.1651 82.3663 40.2287L83.3551 40.378L84.3439 40.5273C84.5354 39.2589 84.5248 38.0155 84.3063 36.8018L83.3221 36.979ZM83.3551 40.378V39.378H72.2341V40.378V41.378H83.3551V40.378ZM72.2341 40.378H73.2341V38.266H72.2341H71.2341V40.378H72.2341ZM72.2341 38.266V39.266H80.5996V38.266V37.266H72.2341V38.266ZM80.5996 38.266L80.0534 37.4284L79.2944 37.9234L79.8406 38.761L80.3869 39.5986L81.1459 39.1036L80.5996 38.266ZM79.8406 38.761L80.8386 38.8247C80.8766 38.229 80.8447 37.6299 80.7445 37.0291L79.7581 37.1935L78.7717 37.3579C78.8476 37.8131 78.8706 38.259 78.8427 38.6973L79.8406 38.761ZM79.7581 37.1935L80.7477 37.0492C80.6555 36.4175 80.4689 35.824 80.1815 35.2767L79.2961 35.7415L78.4107 36.2063C78.5854 36.539 78.7067 36.9135 78.7686 37.3378L79.7581 37.1935ZM79.2961 35.7415L80.1815 35.2767C79.8658 34.6753 79.41 34.1906 78.8302 33.8338L78.3061 34.6855L77.782 35.5372C78.0602 35.7084 78.2644 35.9277 78.4107 36.2063L79.2961 35.7415ZM78.3061 34.6855L78.8558 33.8501C78.23 33.4384 77.4832 33.273 76.6891 33.273V34.273V35.273C77.215 35.273 77.5463 35.3826 77.7565 35.5209L78.3061 34.6855ZM76.6891 34.273V33.273C75.7239 33.273 74.8394 33.5172 74.0918 34.0555L74.6761 34.867L75.2604 35.6785C75.6129 35.4248 76.0704 35.273 76.6891 35.273V34.273ZM74.6761 34.867L74.0918 34.0555C73.3787 34.5689 72.8505 35.2613 72.4999 36.0973L73.4221 36.484L74.3443 36.8707C74.5658 36.3427 74.8736 35.9571 75.2604 35.6785L74.6761 34.867ZM73.4221 36.484L72.4999 36.0973C72.155 36.9198 71.9931 37.8242 71.9931 38.794H72.9931H73.9931C73.9931 38.0478 74.1172 37.4122 74.3443 36.8707L73.4221 36.484ZM72.9931 38.794H71.9931V40.345H72.9931H73.9931V38.794H72.9931ZM72.9931 40.345H71.9931C71.9931 41.3431 72.1391 42.2652 72.4546 43.0935L73.3891 42.7375L74.3236 42.3815C74.1112 41.8238 73.9931 41.1509 73.9931 40.345H72.9931ZM73.3891 42.7375L72.4596 43.1063C72.7936 43.9479 73.2997 44.6506 73.9936 45.171L74.5936 44.371L75.1936 43.571C74.8315 43.2994 74.5347 42.9131 74.3186 42.3687L73.3891 42.7375ZM74.5936 44.371L74.0016 45.1769C74.7467 45.7243 75.6434 45.965 76.6231 45.965V44.965V43.965C75.9749 43.965 75.5186 43.8097 75.1857 43.5651L74.5936 44.371ZM76.6231 44.965V45.965C77.5394 45.965 78.3844 45.7508 79.0999 45.2636L78.5371 44.437L77.9743 43.6104C77.6559 43.8272 77.2248 43.965 76.6231 43.965V44.965ZM78.5371 44.437L79.0999 45.2636C79.8648 44.7428 80.3205 43.9706 80.5071 43.0521L79.5271 42.853L78.5471 42.6539C78.4477 43.1434 78.2435 43.4272 77.9743 43.6104L78.5371 44.437ZM79.5271 42.853V43.853H83.4541V42.853V41.853H79.5271V42.853ZM83.4541 42.853L82.4666 42.6954C82.327 43.5706 82.0013 44.3249 81.4933 44.9781L82.2826 45.592L83.072 46.2059C83.796 45.2751 84.2513 44.2034 84.4416 43.0106L83.4541 42.853ZM82.2826 45.592L81.4921 44.9796C80.9924 45.6246 80.3364 46.1443 79.5008 46.5336L79.9231 47.44L80.3455 48.3464C81.4459 47.8337 82.3628 47.1214 83.0732 46.2044L82.2826 45.592ZM79.9231 47.44L79.5093 46.5296C78.6903 46.9019 77.7349 47.1 76.6231 47.1V48.1V49.1C77.9754 49.1 79.2199 48.8581 80.3369 48.3504L79.9231 47.44ZM85.8557 47.473L85.4923 48.4047L85.5035 48.4089L85.8557 47.473ZM83.3147 45.6415L82.5107 46.2362L82.5147 46.2415L83.3147 45.6415ZM82.4072 42.754V41.754H81.3973L81.4072 42.7638L82.4072 42.754ZM86.0042 42.754L87.0033 42.7124L86.9634 41.754H86.0042V42.754ZM86.9447 44.4865L87.4661 43.6332V43.6332L86.9447 44.4865ZM90.8552 44.7835L90.504 43.8471L90.4962 43.8502L90.8552 44.7835ZM91.8782 44.107L92.6415 44.7529V44.7529L91.8782 44.107ZM91.7462 42.094L91.1086 42.8644L91.1229 42.8763L91.1377 42.8876L91.7462 42.094ZM90.1952 41.368L89.8577 42.3093L89.8792 42.3171L89.9011 42.3238L90.1952 41.368ZM86.6972 40.114L86.3587 41.055L86.3597 41.0553L86.6972 40.114ZM83.8097 38.332L83.0702 39.0052V39.0052L83.8097 38.332ZM84.6347 32.425L85.1945 33.2536L85.1962 33.2525L84.6347 32.425ZM94.3037 32.524L93.6733 33.3004L93.6818 33.3071L94.3037 32.524ZM96.0362 35.923V36.923H97.0604L97.0359 35.899L96.0362 35.923ZM92.3732 35.923L91.3785 36.0266L91.4719 36.923H92.3732V35.923ZM87.6212 34.7185L88.2024 35.5322L88.206 35.5297L87.6212 34.7185ZM88.8752 37.606L89.2254 36.6693L89.1928 36.6572L89.1595 36.6473L88.8752 37.606ZM92.6702 39.025L92.3199 39.9617L92.3343 39.967L92.3489 39.972L92.6702 39.025ZM95.5412 40.642L96.2366 39.9234V39.9234L95.5412 40.642ZM95.7062 45.559L94.9075 44.9571L94.9062 44.959L95.7062 45.559ZM89.8322 48.1V47.1C88.3785 47.1 87.1783 46.9022 86.2078 46.5371L85.8557 47.473L85.5035 48.4089C86.755 48.8798 88.2058 49.1 89.8322 49.1V48.1ZM85.8557 47.473L86.219 46.5413C85.2589 46.1669 84.5769 45.6579 84.1147 45.0415L83.3147 45.6415L82.5147 46.2415C83.2404 47.2091 84.2525 47.9211 85.4923 48.4047L85.8557 47.473ZM83.3147 45.6415L84.1186 45.0468C83.6652 44.4338 83.4163 43.6826 83.4071 42.7442L82.4072 42.754L81.4072 42.7638C81.42 44.0694 81.7761 45.2432 82.5107 46.2362L83.3147 45.6415ZM82.4072 42.754V43.754H86.0042V42.754V41.754H82.4072V42.754ZM86.0042 42.754L85.005 42.7956C85.0497 43.867 85.5014 44.7765 86.4232 45.3398L86.9447 44.4865L87.4661 43.6332C87.1999 43.4705 87.0247 43.225 87.0033 42.7124L86.0042 42.754ZM86.9447 44.4865L86.4232 45.3398C87.2314 45.8336 88.2442 46.031 89.3702 46.031V45.031V44.031C88.4501 44.031 87.846 43.8654 87.4661 43.6332L86.9447 44.4865ZM89.3702 45.031V46.031C90.0276 46.031 90.6484 45.9344 91.2141 45.7168L90.8552 44.7835L90.4962 43.8502C90.2039 43.9626 89.8347 44.031 89.3702 44.031V45.031ZM90.8552 44.7835L91.2063 45.7198C91.7662 45.5099 92.2645 45.1985 92.6415 44.7529L91.8782 44.107L91.1148 43.4611C91.0078 43.5875 90.8241 43.7271 90.504 43.8472L90.8552 44.7835ZM91.8782 44.107L92.6415 44.7529C93.0257 44.299 93.2412 43.7545 93.2412 43.15H92.2412H91.2412C91.2412 43.2495 91.2146 43.343 91.1148 43.4611L91.8782 44.107ZM92.2412 43.15H93.2412C93.2412 42.4183 92.9546 41.7604 92.3546 41.3004L91.7462 42.094L91.1377 42.8876C91.1977 42.9336 91.2412 42.9797 91.2412 43.15H92.2412ZM91.7462 42.094L92.3837 41.3236C91.9123 40.9335 91.245 40.6448 90.4892 40.4122L90.1952 41.368L89.9011 42.3238C90.5754 42.5312 90.942 42.7265 91.1086 42.8644L91.7462 42.094ZM90.1952 41.368L90.5326 40.4267L87.0346 39.1727L86.6972 40.114L86.3597 41.0553L89.8577 42.3093L90.1952 41.368ZM86.6972 40.114L87.0356 39.173C85.8855 38.7594 85.0795 38.2414 84.5491 37.6588L83.8097 38.332L83.0702 39.0052C83.8818 39.8966 85.0008 40.5666 86.3587 41.055L86.6972 40.114ZM83.8097 38.332L84.5491 37.6588C84.0506 37.1112 83.8032 36.4732 83.8032 35.692H82.8032H81.8032C81.8032 36.9568 82.2267 38.0788 83.0702 39.0052L83.8097 38.332ZM82.8032 35.692H83.8032C83.8032 34.7046 84.2198 33.9122 85.1945 33.2536L84.6347 32.425L84.0748 31.5964C82.6075 32.5878 81.8032 33.9734 81.8032 35.692H82.8032ZM84.6347 32.425L85.1962 33.2525C86.2103 32.5643 87.6373 32.171 89.5682 32.171V31.171V30.171C87.385 30.171 85.523 30.6137 84.0732 31.5975L84.6347 32.425ZM89.5682 31.171V32.171C91.4811 32.171 92.8033 32.5939 93.6734 33.3003L94.3037 32.524L94.934 31.7477C93.582 30.6501 91.7473 30.171 89.5682 30.171V31.171ZM94.3037 32.524L93.6818 33.3071C94.5826 34.0225 95.0109 34.8825 95.0364 35.947L96.0362 35.923L97.0359 35.899C96.9954 34.2135 96.2687 32.8075 94.9255 31.7409L94.3037 32.524ZM96.0362 35.923V34.923H92.3732V35.923V36.923H96.0362V35.923ZM92.3732 35.923L93.3678 35.8194C93.2813 34.9895 92.8638 34.3115 92.1781 33.8432L91.6142 34.669L91.0502 35.4948C91.2665 35.6425 91.355 35.8005 91.3785 36.0266L92.3732 35.923ZM91.6142 34.669L92.1781 33.8432C91.4829 33.3684 90.5608 33.207 89.5682 33.207V34.207V35.207C90.4015 35.207 90.8434 35.3536 91.0502 35.4948L91.6142 34.669ZM89.5682 34.207V33.207C88.6175 33.207 87.7372 33.4021 87.0364 33.9073L87.6212 34.7185L88.206 35.5297C88.4511 35.3529 88.8688 35.207 89.5682 35.207V34.207ZM87.6212 34.7185L87.0399 33.9048C86.3911 34.3682 85.9282 35.0328 85.9282 35.89H86.9282H87.9282C87.9282 35.8452 87.9272 35.7288 88.2024 35.5322L87.6212 34.7185ZM86.9282 35.89H85.9282C85.9282 36.5983 86.2472 37.1921 86.7537 37.6385C87.2314 38.0595 87.873 38.3518 88.5908 38.5647L88.8752 37.606L89.1595 36.6473C88.5793 36.4752 88.2474 36.289 88.0761 36.138C87.9336 36.0124 87.9282 35.9407 87.9282 35.89H86.9282ZM88.8752 37.606L88.5249 38.5427L92.3199 39.9617L92.6702 39.025L93.0204 38.0883L89.2254 36.6693L88.8752 37.606ZM92.6702 39.025L92.3489 39.972C93.4898 40.3591 94.3018 40.8342 94.8457 41.3606L95.5412 40.642L96.2366 39.9234C95.4165 39.1298 94.3145 38.5269 92.9915 38.078L92.6702 39.025ZM95.5412 40.642L94.8457 41.3606C95.3191 41.8187 95.5642 42.3889 95.5642 43.15H96.5642H97.5642C97.5642 41.8871 97.1272 40.7853 96.2366 39.9234L95.5412 40.642ZM96.5642 43.15H95.5642C95.5642 43.7536 95.3656 44.3493 94.9075 44.9571L95.7062 45.559L96.5048 46.1609C97.1907 45.2507 97.5642 44.2404 97.5642 43.15H96.5642ZM95.7062 45.559L94.9062 44.959C94.4611 45.5523 93.8153 46.0676 92.9232 46.4846L93.3467 47.3905L93.7701 48.2964C94.902 47.7674 95.8292 47.0617 96.5062 46.159L95.7062 45.559ZM93.3467 47.3905L92.9232 46.4846C92.0668 46.8849 91.0445 47.1 89.8322 47.1V48.1V49.1C91.2818 49.1 92.6026 48.8421 93.7701 48.2964L93.3467 47.3905ZM102.4 47.2585L101.838 48.0854L101.843 48.0889L102.4 47.2585ZM100.42 44.7505L99.5051 45.1541L99.5066 45.1575L100.42 44.7505ZM99.6775 40.543V39.543H98.6775V40.543H99.6775ZM100.866 40.543H101.866V39.543H100.866V40.543ZM101.41 42.655L100.553 43.1695V43.1695L101.41 42.655ZM102.812 44.074L102.3 44.9329L102.307 44.9366L102.313 44.9402L102.812 44.074ZM106.624 43.942L107.199 44.7598V44.7598L106.624 43.942ZM108.027 42.193L107.122 41.7672L107.117 41.7782L108.027 42.193ZM108.043 36.9955L107.135 37.4154L107.138 37.4206L108.043 36.9955ZM106.624 35.2795L106.059 36.1045L106.066 36.1092L106.624 35.2795ZM102.746 35.1475L103.228 36.0241L103.234 36.0205L103.241 36.0168L102.746 35.1475ZM101.377 36.5005L100.517 35.9907L100.514 35.9956L101.377 36.5005ZM100.866 38.629V39.629H101.866V38.629H100.866ZM99.6775 38.629H98.6775V39.629H99.6775V38.629ZM100.37 34.537L99.4504 34.1453L99.4472 34.153L100.37 34.537ZM102.367 32.029L102.914 32.866L102.917 32.8643L102.367 32.029ZM108.983 32.2105L108.435 33.0466L108.445 33.0531L108.983 32.2105ZM111.525 35.131L110.628 35.5751L110.633 35.5845L111.525 35.131ZM111.492 44.0575L110.602 43.6012L110.6 43.6041L111.492 44.0575ZM108.852 47.044L109.387 47.8887L109.393 47.8849L108.852 47.044ZM96.9715 47.638H95.9715V48.638H96.9715V47.638ZM96.9715 25V24H95.9715V25H96.9715ZM100.866 25H101.866V24H100.866V25ZM100.866 43.678L101.812 44.0013L101.866 43.8441V43.678H100.866ZM99.5125 47.638V48.638H100.228L100.459 47.9613L99.5125 47.638ZM105.156 48.1V47.1C104.354 47.1 103.629 46.8792 102.957 46.4281L102.4 47.2585L101.843 48.0889C102.843 48.7598 103.955 49.1 105.156 49.1V48.1ZM102.4 47.2585L102.962 46.4316C102.322 45.996 101.769 45.3219 101.333 44.3435L100.42 44.7505L99.5066 45.1575C100.061 46.4011 100.828 47.399 101.838 48.0854L102.4 47.2585ZM100.42 44.7505L101.335 44.3469C100.913 43.39 100.678 42.1356 100.678 40.543H99.6775H98.6775C98.6775 42.3164 98.9372 43.867 99.5051 45.1541L100.42 44.7505ZM99.6775 40.543V41.543H100.866V40.543V39.543H99.6775V40.543ZM100.866 40.543H99.8655C99.8655 41.5017 100.084 42.3885 100.553 43.1695L101.41 42.655L102.267 42.1405C102.01 41.7115 101.866 41.1903 101.866 40.543H100.866ZM101.41 42.655L100.553 43.1695C100.995 43.9074 101.578 44.5024 102.3 44.9329L102.812 44.074L103.325 43.2151C102.903 42.9636 102.551 42.6126 102.267 42.1405L101.41 42.655ZM102.812 44.074L102.313 44.9402C103.025 45.3513 103.79 45.569 104.595 45.569V44.569V43.569C104.167 43.569 103.744 43.4567 103.312 43.2078L102.812 44.074ZM104.595 44.569V45.569C105.55 45.569 106.429 45.3019 107.199 44.7598L106.624 43.942L106.049 43.1242C105.631 43.4181 105.157 43.569 104.595 43.569V44.569ZM106.624 43.942L107.199 44.7598C107.957 44.2266 108.532 43.4957 108.936 42.6078L108.027 42.193L107.117 41.7782C106.839 42.3863 106.479 42.8214 106.049 43.1242L106.624 43.942ZM108.027 42.193L108.931 42.6188C109.358 41.7112 109.555 40.6799 109.555 39.553H108.555H107.555C107.555 40.4501 107.399 41.1788 107.122 41.7672L108.027 42.193ZM108.555 39.553H109.555C109.555 38.4588 109.364 37.4554 108.948 36.5704L108.043 36.9955L107.138 37.4206C107.404 37.9876 107.555 38.6892 107.555 39.553H108.555ZM108.043 36.9955L108.951 36.5756C108.542 35.692 107.956 34.9702 107.182 34.4498L106.624 35.2795L106.066 36.1092C106.502 36.4028 106.862 36.825 107.135 37.4154L108.043 36.9955ZM106.624 35.2795L107.189 34.4546C106.415 33.9238 105.526 33.669 104.562 33.669V34.669V35.669C105.159 35.669 105.645 35.8212 106.059 36.1044L106.624 35.2795ZM104.562 34.669V33.669C103.74 33.669 102.965 33.873 102.252 34.2782L102.746 35.1475L103.241 36.0168C103.65 35.784 104.085 35.669 104.562 35.669V34.669ZM102.746 35.1475L102.265 34.2709C101.535 34.6718 100.953 35.2553 100.517 35.9907L101.377 36.5005L102.237 37.0103C102.505 36.5577 102.836 36.2392 103.228 36.0241L102.746 35.1475ZM101.377 36.5005L100.514 35.9956C100.064 36.7643 99.8655 37.6574 99.8655 38.629H100.866H101.866C101.866 37.9286 102.008 37.4027 102.24 37.0054L101.377 36.5005ZM100.866 38.629V37.629H99.6775V38.629V39.629H100.866V38.629ZM99.6775 38.629H100.678C100.678 37.1011 100.897 35.8762 101.294 34.921L100.37 34.537L99.4472 34.153C98.9204 35.4198 98.6775 36.9229 98.6775 38.629H99.6775ZM100.37 34.537L101.291 34.9287C101.7 33.9667 102.25 33.3006 102.914 32.866L102.367 32.029L101.82 31.192C100.768 31.8794 99.9868 32.8853 99.4504 34.1453L100.37 34.537ZM102.367 32.029L102.917 32.8643C103.6 32.4144 104.431 32.171 105.452 32.171V31.171V30.171C104.098 30.171 102.872 30.4996 101.817 31.1937L102.367 32.029ZM105.452 31.171V32.171C106.561 32.171 107.547 32.4636 108.435 33.0465L108.983 32.2105L109.532 31.3745C108.308 30.5714 106.94 30.171 105.452 30.171V31.171ZM108.983 32.2105L108.445 33.0531C109.342 33.6263 110.073 34.4537 110.629 35.5751L111.525 35.131L112.42 34.6869C111.722 33.2783 110.759 32.1587 109.522 31.3679L108.983 32.2105ZM111.525 35.131L110.633 35.5845C111.187 36.6721 111.481 37.9848 111.481 39.553H112.481H113.481C113.481 37.7332 113.138 36.0979 112.416 34.6775L111.525 35.131ZM112.481 39.553H111.481C111.481 41.1397 111.177 42.4794 110.602 43.6012L111.492 44.0575L112.381 44.5138C113.126 43.0616 113.481 41.3983 113.481 39.553H112.481ZM111.492 44.0575L110.6 43.6041C110.025 44.7358 109.26 45.5919 108.31 46.2031L108.852 47.044L109.393 47.8849C110.665 47.0661 111.66 45.9312 112.383 44.5108L111.492 44.0575ZM108.852 47.044L108.316 46.1993C107.37 46.7988 106.325 47.1 105.156 47.1V48.1V49.1C106.692 49.1 108.111 48.6972 109.387 47.8887L108.852 47.044ZM96.9715 47.638H97.9715V25H96.9715H95.9715V47.638H96.9715ZM96.9715 25V26H100.866V25V24H96.9715V25ZM100.866 25H99.8655V43.678H100.866H101.866V25H100.866ZM100.866 43.678L99.9192 43.3547L98.5662 47.3147L99.5125 47.638L100.459 47.9613L101.812 44.0013L100.866 43.678ZM99.5125 47.638V46.638H96.9715V47.638V48.638H99.5125V47.638ZM112.952 47.638H111.952V48.638H112.952V47.638ZM112.952 31.567V30.567H111.952V31.567H112.952ZM116.846 31.567H117.846V30.567H116.846V31.567ZM116.846 47.638V48.638H117.846V47.638H116.846ZM115.889 40.609H114.889V41.609H115.889V40.609ZM116.599 35.395L115.653 35.0697V35.0697L116.599 35.395ZM118.496 32.3425L119.136 33.1107L119.137 33.1099L118.496 32.3425ZM121.912 31.3855L121.77 32.3755L121.776 32.3763L121.912 31.3855ZM122.621 31.534L123.621 31.5509L123.634 30.7834L122.896 30.5725L122.621 31.534ZM122.555 35.428L122.33 36.4024L123.534 36.6802L123.555 35.4449L122.555 35.428ZM121.631 35.263L121.763 34.2718V34.2718L121.631 35.263ZM118.579 35.824L119.158 36.6388L119.161 36.6367L118.579 35.824ZM117.275 37.639L116.337 37.2921L116.333 37.3035L117.275 37.639ZM116.846 40.609V41.609H117.846V40.609H116.846ZM112.952 47.638H113.952V31.567H112.952H111.952V47.638H112.952ZM112.952 31.567V32.567H116.846V31.567V30.567H112.952V31.567ZM116.846 31.567H115.846V47.638H116.846H117.846V31.567H116.846ZM116.846 47.638V46.638H112.952V47.638V48.638H116.846V47.638ZM115.889 40.609H116.889C116.889 38.5738 117.119 36.9553 117.544 35.7203L116.599 35.395L115.653 35.0697C115.132 36.5847 114.889 38.4422 114.889 40.609H115.889ZM116.599 35.395L117.544 35.7203C117.981 34.4506 118.531 33.6152 119.136 33.1107L118.496 32.3425L117.856 31.5743C116.877 32.3898 116.162 33.5894 115.653 35.0697L116.599 35.395ZM118.496 32.3425L119.137 33.1099C119.774 32.578 120.441 32.336 121.169 32.336V31.336V30.336C119.939 30.336 118.824 30.765 117.855 31.5751L118.496 32.3425ZM121.169 31.336V32.336C121.392 32.336 121.592 32.3499 121.77 32.3755L121.912 31.3855L122.053 30.3955C121.769 30.3551 121.474 30.336 121.169 30.336V31.336ZM121.912 31.3855L121.776 32.3763C121.972 32.403 122.162 32.4428 122.346 32.4955L122.621 31.534L122.896 30.5725C122.618 30.4932 122.335 30.434 122.047 30.3947L121.912 31.3855ZM122.621 31.534L121.621 31.5171L121.555 35.4111L122.555 35.428L123.555 35.4449L123.621 31.5509L122.621 31.534ZM122.555 35.428L122.78 34.4536C122.46 34.3797 122.12 34.3194 121.763 34.2718L121.631 35.263L121.499 36.2542C121.802 36.2946 122.079 36.3443 122.33 36.4024L122.555 35.428ZM121.631 35.263L121.763 34.2718C121.4 34.2234 121.058 34.197 120.74 34.197V35.197V36.197C120.95 36.197 121.202 36.2146 121.499 36.2542L121.631 35.263ZM120.74 35.197V34.197C119.715 34.197 118.78 34.4491 117.996 35.0113L118.579 35.824L119.161 36.6367C119.543 36.3629 120.049 36.197 120.74 36.197V35.197ZM118.579 35.824L117.999 35.0092C117.23 35.5561 116.688 36.3426 116.337 37.2921L117.275 37.639L118.213 37.9859C118.456 37.3294 118.783 36.9059 119.158 36.6388L118.579 35.824ZM117.275 37.639L116.333 37.3035C115.997 38.2466 115.846 39.358 115.846 40.609H116.846H117.846C117.846 39.506 117.981 38.6374 118.217 37.9745L117.275 37.639ZM116.846 40.609V39.609H115.889V40.609V41.609H116.846V40.609ZM123.845 47.044L123.317 47.8934V47.8934L123.845 47.044ZM121.122 44.0905L120.24 44.5619L120.242 44.5651L121.122 44.0905ZM121.106 35.0815L120.225 34.6069L120.222 34.6129L121.106 35.0815ZM123.828 32.1775L124.338 33.0379V33.0379L123.828 32.1775ZM130.89 31.9465L130.402 32.8193L130.414 32.826L130.89 31.9465ZM133.134 34.0255L132.291 34.5631L132.295 34.5692L132.299 34.5753L133.134 34.0255ZM134.322 40.378V41.378H135.182L135.311 40.5273L134.322 40.378ZM123.201 40.378H122.201V41.378H123.201V40.378ZM123.201 38.266V37.266H122.201V38.266H123.201ZM131.567 38.266L132.113 39.1036L134.931 37.266H131.567V38.266ZM130.808 38.761L129.81 38.6973L129.683 40.6886L131.354 39.5986L130.808 38.761ZM130.725 37.1935L129.736 37.3378L129.737 37.3479L129.739 37.3579L130.725 37.1935ZM130.263 35.7415L131.148 35.2767V35.2767L130.263 35.7415ZM129.273 34.6855L128.723 35.5209L128.736 35.5292L128.749 35.5372L129.273 34.6855ZM125.643 34.867L125.059 34.0555V34.0555L125.643 34.867ZM124.389 36.484L123.467 36.0973V36.0973L124.389 36.484ZM124.356 42.7375L123.422 43.0935L123.427 43.1063L124.356 42.7375ZM125.561 44.371L124.961 45.171L124.969 45.1769L125.561 44.371ZM130.494 42.853V41.853H129.677L129.514 42.6539L130.494 42.853ZM134.421 42.853L135.409 43.0106L135.593 41.853H134.421V42.853ZM133.25 45.592L132.46 44.9781L132.459 44.9796L133.25 45.592ZM130.89 47.44L131.304 48.3504L131.312 48.3464L130.89 47.44ZM127.59 48.1V47.1C126.408 47.1 125.343 46.7979 124.372 46.1946L123.845 47.044L123.317 47.8934C124.612 48.6981 126.044 49.1 127.59 49.1V48.1ZM123.845 47.044L124.372 46.1946C123.399 45.5898 122.608 44.7397 122.002 43.6159L121.122 44.0905L120.242 44.5651C121 45.9713 122.024 47.0902 123.317 47.8934L123.845 47.044ZM121.122 44.0905L122.004 43.6191C121.412 42.512 121.099 41.1889 121.099 39.619H120.099H119.099C119.099 41.4591 119.468 43.117 120.24 44.5619L121.122 44.0905ZM120.099 39.619H121.099C121.099 37.9855 121.41 36.6413 121.989 35.5501L121.106 35.0815L120.222 34.6129C119.459 36.0517 119.099 37.7326 119.099 39.619H120.099ZM121.106 35.0815L121.986 35.5561C122.59 34.4359 123.375 33.608 124.338 33.0379L123.828 32.1775L123.319 31.3171C122.015 32.089 120.985 33.1971 120.225 34.6069L121.106 35.0815ZM123.828 32.1775L124.338 33.0379C125.309 32.4624 126.386 32.171 127.59 32.171V31.171V30.171C126.044 30.171 124.613 30.5506 123.319 31.3171L123.828 32.1775ZM127.59 31.171V32.171C128.73 32.171 129.655 32.4012 130.402 32.8192L130.89 31.9465L131.378 31.0738C130.277 30.4578 129.002 30.171 127.59 30.171V31.171ZM130.89 31.9465L130.414 32.826C131.203 33.2527 131.823 33.8292 132.291 34.5631L133.134 34.0255L133.977 33.4879C133.323 32.4618 132.448 31.6523 131.366 31.067L130.89 31.9465ZM133.134 34.0255L132.299 34.5753C132.791 35.3232 133.129 36.1792 133.305 37.1562L134.289 36.979L135.273 36.8018C135.053 35.5788 134.621 34.4658 133.969 33.4757L133.134 34.0255ZM134.289 36.979L133.305 37.1562C133.482 38.1425 133.494 39.1651 133.333 40.2287L134.322 40.378L135.311 40.5273C135.502 39.2589 135.492 38.0155 135.273 36.8018L134.289 36.979ZM134.322 40.378V39.378H123.201V40.378V41.378H134.322V40.378ZM123.201 40.378H124.201V38.266H123.201H122.201V40.378H123.201ZM123.201 38.266V39.266H131.567V38.266V37.266H123.201V38.266ZM131.567 38.266L131.02 37.4284L130.261 37.9234L130.808 38.761L131.354 39.5986L132.113 39.1036L131.567 38.266ZM130.808 38.761L131.806 38.8247C131.844 38.229 131.812 37.6299 131.711 37.0291L130.725 37.1935L129.739 37.3579C129.815 37.8131 129.838 38.259 129.81 38.6973L130.808 38.761ZM130.725 37.1935L131.715 37.0492C131.622 36.4175 131.436 35.824 131.148 35.2767L130.263 35.7415L129.378 36.2063C129.552 36.539 129.674 36.9135 129.736 37.3378L130.725 37.1935ZM130.263 35.7415L131.148 35.2767C130.833 34.6753 130.377 34.1906 129.797 33.8338L129.273 34.6855L128.749 35.5372C129.027 35.7084 129.231 35.9277 129.378 36.2063L130.263 35.7415ZM129.273 34.6855L129.823 33.8501C129.197 33.4384 128.45 33.273 127.656 33.273V34.273V35.273C128.182 35.273 128.513 35.3826 128.723 35.5209L129.273 34.6855ZM127.656 34.273V33.273C126.691 33.273 125.806 33.5172 125.059 34.0555L125.643 34.867L126.227 35.6785C126.58 35.4248 127.037 35.273 127.656 35.273V34.273ZM125.643 34.867L125.059 34.0555C124.346 34.5689 123.817 35.2613 123.467 36.0973L124.389 36.484L125.311 36.8707C125.533 36.3427 125.841 35.9571 126.227 35.6785L125.643 34.867ZM124.389 36.484L123.467 36.0973C123.122 36.9198 122.96 37.8242 122.96 38.794H123.96H124.96C124.96 38.0478 125.084 37.4122 125.311 36.8707L124.389 36.484ZM123.96 38.794H122.96V40.345H123.96H124.96V38.794H123.96ZM123.96 40.345H122.96C122.96 41.3431 123.106 42.2652 123.422 43.0935L124.356 42.7375L125.291 42.3815C125.078 41.8238 124.96 41.1509 124.96 40.345H123.96ZM124.356 42.7375L123.427 43.1063C123.761 43.9479 124.267 44.6506 124.961 45.171L125.561 44.371L126.161 43.571C125.798 43.2994 125.502 42.9131 125.286 42.3687L124.356 42.7375ZM125.561 44.371L124.969 45.1769C125.714 45.7243 126.61 45.965 127.59 45.965V44.965V43.965C126.942 43.965 126.486 43.8097 126.153 43.5651L125.561 44.371ZM127.59 44.965V45.965C128.506 45.965 129.351 45.7508 130.067 45.2636L129.504 44.437L128.941 43.6104C128.623 43.8272 128.192 43.965 127.59 43.965V44.965ZM129.504 44.437L130.067 45.2636C130.832 44.7428 131.287 43.9706 131.474 43.0521L130.494 42.853L129.514 42.6539C129.415 43.1434 129.21 43.4272 128.941 43.6104L129.504 44.437ZM130.494 42.853V43.853H134.421V42.853V41.853H130.494V42.853ZM134.421 42.853L133.434 42.6954C133.294 43.5706 132.968 44.3249 132.46 44.9781L133.25 45.592L134.039 46.2059C134.763 45.2751 135.218 44.2034 135.409 43.0106L134.421 42.853ZM133.25 45.592L132.459 44.9796C131.959 45.6246 131.303 46.1443 130.468 46.5336L130.89 47.44L131.312 48.3464C132.413 47.8337 133.33 47.1214 134.04 46.2044L133.25 45.592ZM130.89 47.44L130.476 46.5296C129.657 46.9019 128.702 47.1 127.59 47.1V48.1V49.1C128.942 49.1 130.187 48.8581 131.304 48.3504L130.89 47.44ZM137.153 47.0605L136.628 47.9122L136.638 47.918L137.153 47.0605ZM134.364 44.107L133.488 44.5901L133.494 44.5991L134.364 44.107ZM134.364 35.0155L133.494 34.5234L133.492 34.526L134.364 35.0155ZM137.153 32.1445L136.663 31.2727L136.659 31.2747L137.153 32.1445ZM143.654 31.6825L143.258 32.601L143.266 32.6043L143.273 32.6074L143.654 31.6825ZM145.7 33.0355L144.986 33.7357L144.993 33.7426L145.7 33.0355ZM147.02 34.9165L147.928 34.4984V34.4984L147.02 34.9165ZM147.63 37.012L147.655 38.0117L148.759 37.9838L148.622 36.888L147.63 37.012ZM143.703 37.111L142.733 37.3535L142.927 38.1309L143.728 38.1107L143.703 37.111ZM142.713 35.362L142.014 36.0774L142.023 36.0854L142.713 35.362ZM139.1 35.197L139.627 36.0469L139.633 36.0431L139.639 36.0393L139.1 35.197ZM137.747 36.7975L136.847 36.3612L136.841 36.3724L137.747 36.7975ZM137.714 42.3745L136.796 42.7717L136.799 42.78L136.803 42.7883L137.714 42.3745ZM139.034 44.0245L138.471 44.8515L138.483 44.8591L139.034 44.0245ZM143.027 43.8595L143.75 44.5496L143.758 44.5412L143.027 43.8595ZM143.703 41.929V40.929H142.703V41.929H143.703ZM147.63 41.929H148.63V40.929H147.63V41.929ZM146.855 45.031L145.979 44.5471V44.5471L146.855 45.031ZM144.578 47.275L145.059 48.1515L145.067 48.1473L144.578 47.275ZM140.898 48.1V47.1C139.738 47.1 138.667 46.8031 137.667 46.203L137.153 47.0605L136.638 47.918C137.948 48.7039 139.374 49.1 140.898 49.1V48.1ZM137.153 47.0605L137.677 46.2088C136.688 45.6006 135.873 44.7451 135.235 43.6149L134.364 44.107L133.494 44.5991C134.285 45.9989 135.329 47.1124 136.629 47.9122L137.153 47.0605ZM134.364 44.107L135.24 43.6239C134.631 42.5201 134.308 41.1961 134.308 39.619H133.308H132.308C132.308 41.4739 132.69 43.1419 133.489 44.5901L134.364 44.107ZM133.308 39.619H134.308C134.308 37.9313 134.635 36.5752 135.236 35.505L134.364 35.0155L133.492 34.526C132.685 35.9638 132.308 37.6767 132.308 39.619H133.308ZM134.364 35.0155L135.235 35.5076C135.87 34.3833 136.676 33.5647 137.646 33.0143L137.153 32.1445L136.659 31.2747C135.341 32.0223 134.288 33.1177 133.494 34.5234L134.364 35.0155ZM137.153 32.1445L137.642 33.0163C138.646 32.4525 139.725 32.171 140.898 32.171V31.171V30.171C139.387 30.171 137.969 30.5385 136.663 31.2727L137.153 32.1445ZM140.898 31.171V32.171C141.835 32.171 142.615 32.3239 143.258 32.601L143.654 31.6825L144.049 30.764C143.109 30.3591 142.051 30.171 140.898 30.171V31.171ZM143.654 31.6825L143.273 32.6074C143.962 32.8903 144.527 33.2683 144.986 33.7357L145.7 33.0355L146.414 32.3353C145.75 31.6587 144.951 31.1347 144.034 30.7576L143.654 31.6825ZM145.7 33.0355L144.993 33.7426C145.473 34.2233 145.844 34.7534 146.111 35.3346L147.02 34.9165L147.928 34.4984C147.558 33.6936 147.048 32.9697 146.407 32.3284L145.7 33.0355ZM147.02 34.9165L146.111 35.3346C146.391 35.9415 146.563 36.5412 146.638 37.136L147.63 37.012L148.622 36.888C148.521 36.0748 148.287 35.2775 147.928 34.4984L147.02 34.9165ZM147.63 37.012L147.605 36.0123L143.678 36.1113L143.703 37.111L143.728 38.1107L147.655 38.0117L147.63 37.012ZM143.703 37.111L144.673 36.8685C144.455 35.9971 144.036 35.2423 143.404 34.6386L142.713 35.362L142.023 36.0854C142.358 36.4057 142.599 36.8169 142.733 37.3535L143.703 37.111ZM142.713 35.362L143.412 34.6466C142.724 33.9749 141.843 33.669 140.865 33.669V34.669V35.669C141.405 35.669 141.756 35.8251 142.014 36.0774L142.713 35.362ZM140.865 34.669V33.669C140.039 33.669 139.264 33.9042 138.561 34.3547L139.1 35.197L139.639 36.0393C140.035 35.7858 140.437 35.669 140.865 35.669V34.669ZM139.1 35.197L138.573 34.3471C137.826 34.8099 137.261 35.5068 136.847 36.3612L137.747 36.7975L138.646 37.2338C138.936 36.6362 139.273 36.2661 139.627 36.0469L139.1 35.197ZM137.747 36.7975L136.841 36.3724C136.417 37.2766 136.235 38.3769 136.235 39.619H137.235H138.235C138.235 38.5511 138.394 37.7704 138.652 37.2226L137.747 36.7975ZM137.235 39.619H136.235C136.235 40.8082 136.407 41.8721 136.796 42.7717L137.714 42.3745L138.631 41.9773C138.383 41.4029 138.235 40.6298 138.235 39.619H137.235ZM137.714 42.3745L136.803 42.7883C137.194 43.6479 137.742 44.3554 138.471 44.8514L139.034 44.0245L139.596 43.1976C139.225 42.9456 138.893 42.5531 138.624 41.9607L137.714 42.3745ZM139.034 44.0245L138.483 44.8591C139.199 45.3321 140.002 45.569 140.865 45.569V44.569V43.569C140.386 43.569 139.968 43.4429 139.584 43.1899L139.034 44.0245ZM140.865 44.569V45.569C141.989 45.569 143.032 45.3028 143.75 44.5496L143.027 43.8595L142.303 43.1694C142.119 43.3622 141.721 43.569 140.865 43.569V44.569ZM143.027 43.8595L143.758 44.5412C144.417 43.8342 144.703 42.9279 144.703 41.929H143.703H142.703C142.703 42.5361 142.538 42.9168 142.295 43.1778L143.027 43.8595ZM143.703 41.929V42.929H147.63V41.929V40.929H143.703V41.929ZM147.63 41.929H146.63C146.63 42.9033 146.41 43.7692 145.979 44.5471L146.855 45.031L147.73 45.5149C148.334 44.4228 148.63 43.2207 148.63 41.929H147.63ZM146.855 45.031L145.979 44.5471C145.559 45.3071 144.94 45.9257 144.089 46.4027L144.578 47.275L145.067 48.1473C146.217 47.5023 147.116 46.6249 147.73 45.5149L146.855 45.031ZM144.578 47.275L144.096 46.3986C143.277 46.8484 142.226 47.1 140.898 47.1V48.1V49.1C142.474 49.1 143.876 48.8016 145.059 48.1514L144.578 47.275ZM158.992 47.638H157.992V48.638H158.992V47.638ZM158.134 35.5765L157.407 36.2635V36.2635L158.134 35.5765ZM153.811 35.3125L153.232 34.4967L153.225 34.5018L153.811 35.3125ZM152.408 37.2595L153.338 37.6288L153.339 37.6248L152.408 37.2595ZM151.897 40.477V41.477H152.897V40.477H151.897ZM150.61 40.477H149.61V41.477H150.61V40.477ZM151.385 35.296L152.321 35.6479L152.322 35.6455L151.385 35.296ZM153.58 32.194L152.995 31.3828V31.3828L153.58 32.194ZM160.213 32.062L159.653 32.8908L159.659 32.8949L159.665 32.8988L160.213 32.062ZM162.209 34.537L161.285 34.9182L161.288 34.9263L162.209 34.537ZM162.886 47.638V48.638H163.886V47.638H162.886ZM148.003 47.638H147.003V48.638H148.003V47.638ZM148.003 25V24H147.003V25H148.003ZM151.897 25H152.897V24H151.897V25ZM151.897 47.638V48.638H152.897V47.638H151.897ZM158.992 47.638H159.992V38.266H158.992H157.992V47.638H158.992ZM158.992 38.266H159.992C159.992 36.9315 159.671 35.7466 158.861 34.8895L158.134 35.5765L157.407 36.2635C157.741 36.6164 157.992 37.2245 157.992 38.266H158.992ZM158.134 35.5765L158.861 34.8895C158.078 34.0617 157.055 33.669 155.89 33.669V34.669V35.669C156.572 35.669 157.046 35.8813 157.407 36.2635L158.134 35.5765ZM155.89 34.669V33.669C154.913 33.669 154.016 33.9413 153.232 34.4968L153.811 35.3125L154.389 36.1282C154.816 35.8257 155.304 35.669 155.89 35.669V34.669ZM153.811 35.3125L153.225 34.5018C152.439 35.0701 151.87 35.8952 151.478 36.8942L152.408 37.2595L153.339 37.6248C153.629 36.8858 153.995 36.4129 154.396 36.1232L153.811 35.3125ZM152.408 37.2595L151.479 36.8902C151.077 37.9022 150.897 39.1098 150.897 40.477H151.897H152.897C152.897 39.2702 153.058 38.3328 153.338 37.6288L152.408 37.2595ZM151.897 40.477V39.477H150.61V40.477V41.477H151.897V40.477ZM150.61 40.477H151.61C151.61 38.4722 151.86 36.8742 152.321 35.6479L151.385 35.296L150.449 34.9441C149.876 36.4678 149.61 38.3238 149.61 40.477H150.61ZM151.385 35.296L152.322 35.6455C152.789 34.3952 153.417 33.544 154.165 33.0052L153.58 32.194L152.995 31.3828C151.85 32.208 151.016 33.4248 150.448 34.9465L151.385 35.296ZM153.58 32.194L154.165 33.0052C154.924 32.4576 155.826 32.171 156.913 32.171V31.171V30.171C155.448 30.171 154.128 30.5664 152.995 31.3828L153.58 32.194ZM156.913 31.171V32.171C158.082 32.171 158.975 32.4329 159.653 32.8908L160.213 32.062L160.772 31.2332C159.691 30.5031 158.384 30.171 156.913 30.171V31.171ZM160.213 32.062L159.665 32.8988C160.373 33.3621 160.915 34.0212 161.285 34.9182L162.209 34.537L163.134 34.1558C162.624 32.9188 161.834 31.9279 160.76 31.2252L160.213 32.062ZM162.209 34.537L161.288 34.9263C161.677 35.8458 161.886 36.9515 161.886 38.266H162.886H163.886C163.886 36.7425 163.644 35.3622 163.131 34.1477L162.209 34.537ZM162.886 38.266H161.886V47.638H162.886H163.886V38.266H162.886ZM162.886 47.638V46.638H158.992V47.638V48.638H162.886V47.638ZM148.003 47.638H149.003V25H148.003H147.003V47.638H148.003ZM148.003 25V26H151.897V25V24H148.003V25ZM151.897 25H150.897V47.638H151.897H152.897V25H151.897ZM151.897 47.638V46.638H148.003V47.638V48.638H151.897V47.638ZM167.078 47.572L166.668 48.4837L166.672 48.4858L167.078 47.572ZM165.197 45.955L164.354 46.4919L164.36 46.5009L165.197 45.955ZM164.504 27.376V26.376H163.504V27.376H164.504ZM168.398 27.376H169.398V26.376H168.398V27.376ZM171.434 44.899L171.212 43.9241V43.9241L171.434 44.899ZM172.754 44.503L173.734 44.3023L173.503 43.1754L172.419 43.5608L172.754 44.503ZM173.315 47.242L173.681 48.1728L174.464 47.8652L174.295 47.0413L173.315 47.242ZM171.517 47.8525L171.245 46.8903V46.8903L171.517 47.8525ZM162.26 34.207H161.26V35.207H162.26V34.207ZM162.26 31.633V30.633H161.26V31.633H162.26ZM172.754 31.633H173.754V30.633H172.754V31.633ZM172.754 34.207V35.207H173.754V34.207H172.754ZM169.685 48.1V47.1C168.866 47.1 168.137 46.9483 167.485 46.6582L167.078 47.572L166.672 48.4858C167.603 48.8997 168.612 49.1 169.685 49.1V48.1ZM167.078 47.572L167.489 46.6603C166.885 46.3879 166.405 45.9768 166.035 45.4091L165.197 45.955L164.36 46.5009C164.936 47.3852 165.71 48.0521 166.668 48.4837L167.078 47.572ZM165.197 45.955L166.041 45.4181C165.708 44.8946 165.504 44.1716 165.504 43.183H164.504H163.504C163.504 44.4384 163.763 45.5634 164.354 46.4919L165.197 45.955ZM164.504 43.183H165.504V27.376H164.504H163.504V43.183H164.504ZM164.504 27.376V28.376H168.398V27.376V26.376H164.504V27.376ZM168.398 27.376H167.398V43.051H168.398H169.398V27.376H168.398ZM168.398 43.051H167.398C167.398 43.8527 167.588 44.6398 168.144 45.2248C168.709 45.8194 169.485 46.031 170.279 46.031V45.031V44.031C169.82 44.031 169.656 43.9127 169.594 43.8473C169.522 43.7722 169.398 43.5693 169.398 43.051H168.398ZM170.279 45.031V46.031C170.741 46.031 171.201 45.9781 171.657 45.8739L171.434 44.899L171.212 43.9241C170.898 43.9959 170.588 44.031 170.279 44.031V45.031ZM171.434 44.899L171.657 45.8739C172.09 45.7749 172.569 45.6303 173.089 45.4452L172.754 44.503L172.419 43.5608C171.95 43.7277 171.549 43.8471 171.212 43.9241L171.434 44.899ZM172.754 44.503L171.775 44.7037L172.336 47.4427L173.315 47.242L174.295 47.0413L173.734 44.3023L172.754 44.503ZM173.315 47.242L172.95 46.3112C172.362 46.5423 171.793 46.735 171.245 46.8903L171.517 47.8525L171.789 48.8147C172.407 48.64 173.037 48.4257 173.681 48.1728L173.315 47.242ZM171.517 47.8525L171.245 46.8903C170.755 47.0289 170.236 47.1 169.685 47.1V48.1V49.1C170.411 49.1 171.113 49.0061 171.789 48.8147L171.517 47.8525ZM162.26 34.207H163.26V31.633H162.26H161.26V34.207H162.26ZM162.26 31.633V32.633H172.754V31.633V30.633H162.26V31.633ZM172.754 31.633H171.754V34.207H172.754H173.754V31.633H172.754ZM172.754 34.207V33.207H162.26V34.207V35.207H172.754V34.207Z" fill="white" mask="url(#path-2-outside-1_12_19)"/>
</svg>
