<svg width="180" height="49" viewBox="0 0 180 49" fill="none" xmlns="http://www.w3.org/2000/svg">
<path d="M44.34 1.25797H48.828L54.166 19.788H53.146L58.416 2.71997H61.136L66.61 19.516H65.692L71.302 1.25797H75.824L68.242 23.324H64.026L59.708 10.302H60.082L55.764 23.324H51.548L44.34 1.25797ZM84.0605 23.324L83.5505 19.312V12.682C83.5505 11.526 83.3125 10.6703 82.8365 10.115C82.3718 9.55964 81.5785 9.28197 80.4565 9.28197C79.8105 9.28197 79.2495 9.37831 78.7735 9.57097C78.2975 9.76364 77.9292 10.0413 77.6685 10.404C77.4192 10.7553 77.2945 11.186 77.2945 11.696H72.9085C72.9085 10.4493 73.2088 9.43497 73.8095 8.65297C74.4102 7.85964 75.2715 7.28164 76.3935 6.91897C77.5268 6.54497 78.8812 6.35797 80.4565 6.35797C81.8845 6.35797 83.1312 6.59031 84.1965 7.05497C85.2618 7.50831 86.0892 8.21097 86.6785 9.16297C87.2678 10.115 87.5625 11.3333 87.5625 12.818V23.324H84.0605ZM78.6545 23.8C77.2378 23.8 76.0535 23.5563 75.1015 23.069C74.1608 22.5703 73.4525 21.9186 72.9765 21.114C72.5005 20.3093 72.2625 19.4366 72.2625 18.496C72.2625 17.4533 72.5345 16.5806 73.0785 15.878C73.6338 15.164 74.4158 14.6313 75.4245 14.28C76.4332 13.9173 77.6232 13.736 78.9945 13.736C79.8898 13.736 80.7342 13.804 81.5275 13.94C82.3322 14.076 83.1312 14.2573 83.9245 14.484V16.83C83.3012 16.626 82.6212 16.4673 81.8845 16.354C81.1478 16.2406 80.4565 16.184 79.8105 16.184C78.8585 16.184 78.0765 16.3596 77.4645 16.711C76.8525 17.0623 76.5465 17.6573 76.5465 18.496C76.5465 19.108 76.7958 19.635 77.2945 20.077C77.7932 20.519 78.5865 20.74 79.6745 20.74C80.5018 20.74 81.2045 20.5586 81.7825 20.196C82.3605 19.8333 82.7968 19.38 83.0915 18.836C83.3975 18.292 83.5505 17.748 83.5505 17.204H84.5025C84.5025 18.394 84.2815 19.4933 83.8395 20.502C83.3975 21.4993 82.7402 22.2983 81.8675 22.899C81.0062 23.4996 79.9352 23.8 78.6545 23.8ZM89.0232 23.324V-2.70605e-05H93.0352V23.324H89.0232ZM101.049 23.8C99.6659 23.8 98.4022 23.4373 97.2575 22.712C96.1242 21.9753 95.2175 20.9496 94.5375 19.635C93.8689 18.309 93.5345 16.762 93.5345 14.994C93.5345 13.2486 93.8575 11.73 94.5035 10.438C95.1609 9.13464 96.0335 8.13164 97.1215 7.42897C98.2209 6.71497 99.4392 6.35797 100.777 6.35797C102.001 6.35797 103.06 6.65264 103.956 7.24197C104.851 7.81997 105.537 8.68131 106.013 9.82597C106.489 10.9706 106.727 12.376 106.727 14.042H105.469C105.469 13.1806 105.293 12.4496 104.942 11.849C104.59 11.237 104.126 10.7723 103.548 10.455C102.981 10.1263 102.363 9.96197 101.695 9.96197C100.89 9.96197 100.176 10.1716 99.5525 10.591C98.9405 11.0103 98.4589 11.5996 98.1075 12.359C97.7562 13.107 97.5805 13.9853 97.5805 14.994C97.5805 16.0366 97.7562 16.9433 98.1075 17.714C98.4589 18.4846 98.9405 19.0853 99.5525 19.516C100.176 19.9466 100.879 20.162 101.661 20.162C102.295 20.162 102.902 19.992 103.48 19.652C104.069 19.3006 104.545 18.8133 104.908 18.19C105.282 17.5666 105.469 16.8413 105.469 16.014H106.727C106.727 17.748 106.466 19.193 105.945 20.349C105.435 21.4936 104.749 22.355 103.888 22.933C103.026 23.511 102.08 23.8 101.049 23.8ZM106.217 23.324L105.469 19.244V-2.70605e-05H109.515V23.324H106.217ZM117.581 23.8C116.176 23.8 114.89 23.4373 113.722 22.712C112.555 21.9866 111.62 20.9723 110.917 19.669C110.215 18.3543 109.863 16.8186 109.863 15.062C109.863 13.2486 110.209 11.6903 110.9 10.387C111.603 9.08364 112.538 8.08631 113.705 7.39497C114.873 6.70364 116.165 6.35797 117.581 6.35797C118.896 6.35797 120.029 6.62431 120.981 7.15697C121.945 7.67831 122.715 8.39231 123.293 9.29897C123.883 10.1943 124.279 11.2086 124.483 12.342C124.687 13.4753 124.699 14.6426 124.517 15.844H113.059V13.668H121.678L120.896 14.178C120.93 13.6453 120.902 13.107 120.811 12.563C120.732 12.019 120.573 11.5203 120.335 11.067C120.097 10.6136 119.757 10.251 119.315 9.97897C118.885 9.69564 118.329 9.55397 117.649 9.55397C116.833 9.55397 116.142 9.75797 115.575 10.166C115.009 10.574 114.578 11.1293 114.283 11.832C113.989 12.5346 113.841 13.328 113.841 14.212V15.81C113.841 16.7393 113.977 17.561 114.249 18.275C114.533 18.989 114.946 19.55 115.49 19.958C116.046 20.366 116.743 20.57 117.581 20.57C118.363 20.57 119.021 20.3886 119.553 20.026C120.086 19.6633 120.426 19.1193 120.573 18.394H124.619C124.449 19.4593 124.047 20.4 123.412 21.216C122.789 22.0206 121.979 22.6553 120.981 23.12C119.984 23.5733 118.851 23.8 117.581 23.8ZM147.443 23.324V13.668C147.443 12.444 147.148 11.5203 146.559 10.897C145.969 10.2736 145.199 9.96197 144.247 9.96197C143.045 9.96197 142.099 10.4493 141.408 11.424C140.716 12.3986 140.371 13.872 140.371 15.844H138.705C138.705 14.11 138.863 12.6423 139.181 11.441C139.509 10.2283 139.968 9.25364 140.558 8.51697C141.158 7.76897 141.861 7.22497 142.666 6.88497C143.47 6.53364 144.36 6.35797 145.335 6.35797C146.683 6.35797 147.811 6.66397 148.718 7.27597C149.636 7.87664 150.327 8.72664 150.792 9.82597C151.256 10.9253 151.489 12.206 151.489 13.668V23.324H147.443ZM125.037 23.324V6.83397H128.539L128.981 9.65597C129.525 8.55664 130.244 7.73497 131.14 7.19097C132.035 6.63564 133.061 6.35797 134.217 6.35797C135.577 6.35797 136.71 6.66397 137.617 7.27597C138.535 7.87664 139.22 8.72664 139.674 9.82597C140.138 10.9253 140.371 12.206 140.371 13.668V23.324H136.359V13.668C136.359 12.444 136.064 11.5203 135.475 10.897C134.885 10.2736 134.115 9.96197 133.163 9.96197C132.358 9.96197 131.644 10.183 131.021 10.625C130.409 11.067 129.927 11.7356 129.576 12.631C129.224 13.515 129.049 14.62 129.049 15.946V23.324H125.037ZM163.396 23.324L162.886 19.312V12.682C162.886 11.526 162.648 10.6703 162.172 10.115C161.707 9.55964 160.914 9.28197 159.792 9.28197C159.146 9.28197 158.585 9.37831 158.109 9.57097C157.633 9.76364 157.265 10.0413 157.004 10.404C156.755 10.7553 156.63 11.186 156.63 11.696H152.244C152.244 10.4493 152.544 9.43497 153.145 8.65297C153.746 7.85964 154.607 7.28164 155.729 6.91897C156.862 6.54497 158.217 6.35797 159.792 6.35797C161.22 6.35797 162.467 6.59031 163.532 7.05497C164.597 7.50831 165.425 8.21097 166.014 9.16297C166.603 10.115 166.898 11.3333 166.898 12.818V23.324H163.396ZM157.99 23.8C156.573 23.8 155.389 23.5563 154.437 23.069C153.496 22.5703 152.788 21.9186 152.312 21.114C151.836 20.3093 151.598 19.4366 151.598 18.496C151.598 17.4533 151.87 16.5806 152.414 15.878C152.969 15.164 153.751 14.6313 154.76 14.28C155.769 13.9173 156.959 13.736 158.33 13.736C159.225 13.736 160.07 13.804 160.863 13.94C161.668 14.076 162.467 14.2573 163.26 14.484V16.83C162.637 16.626 161.957 16.4673 161.22 16.354C160.483 16.2406 159.792 16.184 159.146 16.184C158.194 16.184 157.412 16.3596 156.8 16.711C156.188 17.0623 155.882 17.6573 155.882 18.496C155.882 19.108 156.131 19.635 156.63 20.077C157.129 20.519 157.922 20.74 159.01 20.74C159.837 20.74 160.54 20.5586 161.118 20.196C161.696 19.8333 162.132 19.38 162.427 18.836C162.733 18.292 162.886 17.748 162.886 17.204H163.838C163.838 18.394 163.617 19.4933 163.175 20.502C162.733 21.4993 162.076 22.2983 161.203 22.899C160.342 23.4996 159.271 23.8 157.99 23.8ZM168.359 23.324V6.76597H172.371V23.324H168.359ZM171.385 16.082C171.385 13.9173 171.628 12.1266 172.116 10.71C172.603 9.29331 173.255 8.24497 174.071 7.56497C174.898 6.87364 175.816 6.52797 176.825 6.52797C177.097 6.52797 177.352 6.54497 177.59 6.57897C177.839 6.61297 178.083 6.66397 178.321 6.73197L178.253 10.744C177.958 10.676 177.641 10.6193 177.301 10.574C176.961 10.5286 176.655 10.506 176.383 10.506C175.499 10.506 174.756 10.7213 174.156 11.152C173.566 11.5713 173.119 12.1946 172.813 13.022C172.518 13.8493 172.371 14.8693 172.371 16.082H171.385ZM55.22 48.8C53.418 48.8 51.7917 48.324 50.341 47.372C48.8903 46.42 47.7343 45.094 46.873 43.394C46.023 41.6826 45.598 39.688 45.598 37.41C45.598 35.608 45.8587 33.993 46.38 32.565C46.9127 31.137 47.6493 29.9186 48.59 28.91C49.5307 27.9013 50.6357 27.1363 51.905 26.615C53.1743 26.0823 54.5513 25.816 56.036 25.816C58.0987 25.816 59.827 26.2636 61.221 27.159C62.6263 28.0543 63.72 29.4653 64.502 31.392L60.388 32.344C59.81 31.4033 59.1413 30.6893 58.382 30.202C57.634 29.7033 56.784 29.454 55.832 29.454C54.744 29.454 53.7523 29.777 52.857 30.423C51.9617 31.0576 51.2477 31.97 50.715 33.16C50.1823 34.35 49.916 35.7666 49.916 37.41C49.916 38.9513 50.1483 40.3 50.613 41.456C51.089 42.612 51.752 43.513 52.602 44.159C53.452 44.805 54.438 45.128 55.56 45.128C56.512 45.128 57.362 44.9183 58.11 44.499C58.8693 44.0683 59.4643 43.4563 59.895 42.663C60.337 41.8696 60.558 40.912 60.558 39.79H61.442C61.442 41.626 61.221 43.2183 60.779 44.567C60.3483 45.9156 59.674 46.9583 58.756 47.695C57.838 48.4316 56.6593 48.8 55.22 48.8ZM61.136 48.324L60.558 43.462V39.654L55.594 39.552V37.002H64.4V48.324H61.136ZM68.0978 28.808C67.3158 28.808 66.7038 28.604 66.2618 28.196C65.8311 27.7766 65.6158 27.1986 65.6158 26.462C65.6158 25.748 65.8311 25.1813 66.2618 24.762C66.7038 24.3313 67.3158 24.116 68.0978 24.116C68.8684 24.116 69.4748 24.3313 69.9168 24.762C70.3588 25.1813 70.5798 25.748 70.5798 26.462C70.5798 27.1986 70.3588 27.7766 69.9168 28.196C69.4748 28.604 68.8684 28.808 68.0978 28.808ZM66.0918 48.324V31.766H70.1038V48.324H66.0918ZM78.642 48.8C77.2367 48.8 75.9503 48.4373 74.783 47.712C73.6157 46.9866 72.6807 45.9723 71.978 44.669C71.2753 43.3543 70.924 41.8186 70.924 40.062C70.924 38.2486 71.2697 36.6903 71.961 35.387C72.6637 34.0836 73.5987 33.0863 74.766 32.395C75.9333 31.7036 77.2253 31.358 78.642 31.358C79.9567 31.358 81.09 31.6243 82.042 32.157C83.0053 32.6783 83.776 33.3923 84.354 34.299C84.9433 35.1943 85.34 36.2086 85.544 37.342C85.748 38.4753 85.7593 39.6426 85.578 40.844H74.12V38.668H82.739L81.957 39.178C81.991 38.6453 81.9627 38.107 81.872 37.563C81.7927 37.019 81.634 36.5203 81.396 36.067C81.158 35.6136 80.818 35.251 80.376 34.979C79.9453 34.6956 79.39 34.554 78.71 34.554C77.894 34.554 77.2027 34.758 76.636 35.166C76.0693 35.574 75.6387 36.1293 75.344 36.832C75.0493 37.5346 74.902 38.328 74.902 39.212V40.81C74.902 41.7393 75.038 42.561 75.31 43.275C75.5933 43.989 76.007 44.55 76.551 44.958C77.1063 45.366 77.8033 45.57 78.642 45.57C79.424 45.57 80.0813 45.3886 80.614 45.026C81.1467 44.6633 81.4867 44.1193 81.634 43.394H85.68C85.51 44.4593 85.1077 45.4 84.473 46.216C83.8497 47.0206 83.0393 47.6553 82.042 48.12C81.0447 48.5733 79.9113 48.8 78.642 48.8ZM92.2513 48.8C90.6646 48.8 89.299 48.5846 88.1543 48.154C87.021 47.712 86.1483 47.083 85.5363 46.267C84.9243 45.4396 84.6126 44.448 84.6013 43.292H88.3073C88.3413 44.108 88.6643 44.703 89.2763 45.077C89.8883 45.451 90.7213 45.638 91.7753 45.638C92.3533 45.638 92.8633 45.553 93.3053 45.383C93.7586 45.213 94.11 44.9806 94.3593 44.686C94.6086 44.3913 94.7333 44.0626 94.7333 43.7C94.7333 43.2353 94.5633 42.8726 94.2233 42.612C93.8946 42.34 93.362 42.0906 92.6253 41.864L89.0213 40.572C87.7293 40.1073 86.7376 39.4953 86.0463 38.736C85.355 37.9766 85.0093 37.07 85.0093 36.016C85.0093 34.622 85.6383 33.5 86.8963 32.65C88.1656 31.7886 89.86 31.358 91.9793 31.358C94.0873 31.358 95.7136 31.8226 96.8583 32.752C98.0143 33.67 98.6093 34.8373 98.6433 36.254H94.8693C94.8126 35.71 94.552 35.2793 94.0873 34.962C93.6226 34.6446 92.92 34.486 91.9793 34.486C91.1293 34.486 90.4606 34.6616 89.9733 35.013C89.4973 35.353 89.2593 35.7553 89.2593 36.22C89.2593 37.002 89.928 37.5913 91.2653 37.988L95.1753 39.45C96.4446 39.8806 97.4306 40.436 98.1333 41.116C98.836 41.796 99.1873 42.6573 99.1873 43.7C99.1873 44.5726 98.8926 45.4 98.3033 46.182C97.7253 46.9526 96.915 47.5816 95.8723 48.069C94.8296 48.5563 93.6226 48.8 92.2513 48.8ZM108.039 48.8C107.008 48.8 106.061 48.511 105.2 47.933C104.35 47.355 103.67 46.4936 103.16 45.349C102.65 44.193 102.395 42.748 102.395 41.014H103.619C103.619 41.8413 103.806 42.5666 104.18 43.19C104.554 43.8133 105.036 44.3006 105.625 44.652C106.214 44.992 106.826 45.162 107.461 45.162C108.243 45.162 108.94 44.9466 109.552 44.516C110.164 44.0853 110.646 43.4846 110.997 42.714C111.36 41.9433 111.541 41.0366 111.541 39.994C111.541 38.9853 111.365 38.107 111.014 37.359C110.663 36.5996 110.175 36.0103 109.552 35.591C108.94 35.1716 108.232 34.962 107.427 34.962C106.758 34.962 106.135 35.1263 105.557 35.455C104.979 35.7723 104.509 36.237 104.146 36.849C103.795 37.4496 103.619 38.1806 103.619 39.042H102.395C102.395 37.376 102.633 35.9706 103.109 34.826C103.596 33.6813 104.282 32.82 105.166 32.242C106.061 31.6526 107.121 31.358 108.345 31.358C109.682 31.358 110.895 31.715 111.983 32.429C113.082 33.1316 113.955 34.1346 114.601 35.438C115.258 36.73 115.587 38.2486 115.587 39.994C115.587 41.762 115.247 43.309 114.567 44.635C113.898 45.9496 112.992 46.9753 111.847 47.712C110.702 48.4373 109.433 48.8 108.039 48.8ZM99.607 48.324V25H103.619V44.244L102.225 48.324H99.607ZM116.072 48.324V31.766H120.084V48.324H116.072ZM119.098 41.082C119.098 38.9173 119.341 37.1266 119.829 35.71C120.316 34.2933 120.968 33.245 121.784 32.565C122.611 31.8736 123.529 31.528 124.538 31.528C124.81 31.528 125.065 31.545 125.303 31.579C125.552 31.613 125.796 31.664 126.034 31.732L125.966 35.744C125.671 35.676 125.354 35.6193 125.014 35.574C124.674 35.5286 124.368 35.506 124.096 35.506C123.212 35.506 122.469 35.7213 121.869 36.152C121.279 36.5713 120.832 37.1946 120.526 38.022C120.231 38.8493 120.084 39.8693 120.084 41.082H119.098ZM131.153 48.8C129.748 48.8 128.462 48.4373 127.294 47.712C126.127 46.9866 125.192 45.9723 124.489 44.669C123.787 43.3543 123.435 41.8186 123.435 40.062C123.435 38.2486 123.781 36.6903 124.472 35.387C125.175 34.0836 126.11 33.0863 127.277 32.395C128.445 31.7036 129.737 31.358 131.153 31.358C132.468 31.358 133.601 31.6243 134.553 32.157C135.517 32.6783 136.287 33.3923 136.865 34.299C137.455 35.1943 137.851 36.2086 138.055 37.342C138.259 38.4753 138.271 39.6426 138.089 40.844H126.631V38.668H135.25L134.468 39.178C134.502 38.6453 134.474 38.107 134.383 37.563C134.304 37.019 134.145 36.5203 133.907 36.067C133.669 35.6136 133.329 35.251 132.887 34.979C132.457 34.6956 131.901 34.554 131.221 34.554C130.405 34.554 129.714 34.758 129.147 35.166C128.581 35.574 128.15 36.1293 127.855 36.832C127.561 37.5346 127.413 38.328 127.413 39.212V40.81C127.413 41.7393 127.549 42.561 127.821 43.275C128.105 43.989 128.518 44.55 129.062 44.958C129.618 45.366 130.315 45.57 131.153 45.57C131.935 45.57 132.593 45.3886 133.125 45.026C133.658 44.6633 133.998 44.1193 134.145 43.394H138.191C138.021 44.4593 137.619 45.4 136.984 46.216C136.361 47.0206 135.551 47.6553 134.553 48.12C133.556 48.5733 132.423 48.8 131.153 48.8ZM144.865 48.8C143.482 48.8 142.196 48.443 141.006 47.729C139.827 47.0036 138.869 45.9893 138.133 44.686C137.407 43.3713 137.045 41.83 137.045 40.062C137.045 38.192 137.407 36.611 138.133 35.319C138.869 34.0156 139.827 33.0296 141.006 32.361C142.196 31.6923 143.482 31.358 144.865 31.358C145.941 31.358 146.888 31.5336 147.704 31.885C148.531 32.225 149.234 32.6896 149.812 33.279C150.39 33.857 150.843 34.503 151.172 35.217C151.5 35.931 151.71 36.6506 151.801 37.376L147.755 37.478C147.573 36.7526 147.233 36.152 146.735 35.676C146.247 35.2 145.613 34.962 144.831 34.962C144.185 34.962 143.578 35.1433 143.012 35.506C142.445 35.8573 141.98 36.407 141.618 37.155C141.266 37.903 141.091 38.872 141.091 40.062C141.091 41.1953 141.255 42.1416 141.584 42.901C141.924 43.649 142.377 44.2156 142.944 44.601C143.51 44.975 144.139 45.162 144.831 45.162C145.851 45.162 146.593 44.9183 147.058 44.431C147.522 43.9323 147.755 43.2693 147.755 42.442H151.801C151.801 43.6093 151.534 44.6746 151.002 45.638C150.469 46.6013 149.687 47.372 148.656 47.95C147.624 48.5166 146.361 48.8 144.865 48.8ZM163.507 48.324V38.668C163.507 37.444 163.212 36.5203 162.623 35.897C162.033 35.2736 161.263 34.962 160.311 34.962C159.506 34.962 158.792 35.183 158.169 35.625C157.557 36.067 157.075 36.7356 156.724 37.631C156.372 38.515 156.197 39.62 156.197 40.946H154.871C154.871 38.804 155.137 37.0246 155.67 35.608C156.202 34.18 156.956 33.1146 157.931 32.412C158.905 31.7093 160.05 31.358 161.365 31.358C162.725 31.358 163.858 31.664 164.765 32.276C165.683 32.8766 166.368 33.7266 166.822 34.826C167.286 35.9253 167.519 37.206 167.519 38.668V48.324H163.507ZM152.185 48.324V25H156.197V48.324H152.185ZM174.524 48.8C173.55 48.8 172.654 48.6186 171.838 48.256C171.034 47.8933 170.388 47.338 169.9 46.59C169.424 45.842 169.186 44.89 169.186 43.734V27.448H173.198V43.598C173.198 44.958 173.844 45.638 175.136 45.638C175.533 45.638 175.93 45.5926 176.326 45.502C176.723 45.4113 177.176 45.2753 177.686 45.094L178.264 47.916C177.63 48.1653 177.012 48.375 176.411 48.545C175.811 48.715 175.182 48.8 174.524 48.8ZM166.874 34.486V31.834H177.686V34.486H166.874Z" fill="#D7C9C9"/>
<path d="M20.3467 27.78L27.8555 39.9255L27.6445 39.5837V36.825L28.207 35.4626L30.3877 31.1384L34.5381 23.5154L34.8896 23.2566V48.324H25.6045L23.4238 45.0251L21.1729 40.8904L16.6758 33.0076L14.3496 36.825L11.5361 41.7341L9.42578 45.6111L8.01855 48.324H0V36.3074L7.1748 23.5154L6.75293 37.7292L9.70703 33.2068L16.6758 21.9646L20.3467 27.78ZM27.4385 31.988L23.6396 25.4246L28.5635 16.5437H35.7393L27.4385 31.988ZM8.05469 17.3015L0.742188 30.5828L0.739258 0.393311L7.9248 0.346436L8.05469 17.3015ZM35.4062 7.17261H23.3066L20.0713 12.0818L11.9111 25.1326L8.53516 18.9177L20.3525 0.323975H35.4062V7.17261Z" fill="#3DCEB4"/>
</svg>
